<?xml version="1.0" standalone="no"?>
<!DOCTYPE svg PUBLIC "-//W3C//DTD SVG 1.1//EN" "http://www.w3.org/Graphics/SVG/1.1/DTD/svg11.dtd" >
<svg xmlns="http://www.w3.org/2000/svg">
<metadata>Generated by IcoMoon</metadata>
<defs>
<font id="svbi" horiz-adv-x="1024">
<font-face units-per-em="1024" ascent="960" descent="-64" />
<missing-glyph horiz-adv-x="1024" />
<glyph unicode="&#x20;" horiz-adv-x="512" d="" />
<glyph unicode="&#xe900;" glyph-name="1c" d="M637.978 228.8c-22.174 1.579-47.74 5.726-67.904 11.964-3.78 1.165-19.418 7.305-23.394 9.25-70.204 34.718-119.113 110.502-119.113 198.426 0 120.592 91.904 218.819 204.937 218.819 112.026 0 203.307-96.552 204.877-215.781h74.035c-1.57 162.79-126.046 294.722-278.912 294.722-153.783 0-278.952-133.548-278.952-297.76 0-113.212 59.636-211.674 146.958-261.973 15.765-8.905 38.396-18.078 46.076-20.591 24.892-7.91 55.441-13.171 82.633-15.373 9.233-0.742 41.476-1.131 50.876-1.169h509.833v78.724h-508.975c-6.771 0-36.352 0.273-42.974 0.742zM680.951 352.414c-5.385 0-33.54 0.192-38.741 0.661-8.815 0.798-21.589 2.202-29.803 4.207-9.267 2.65-17.971 6.157-21.897 8.457-27.499 15.876-46.242 46.929-46.242 82.701 0 52.036 39.471 94.233 88.235 94.233 47.735 0 86.549-40.541 88.102-91.195h71.134c-1.498 92.539-72.154 167.116-159.236 167.116-88.051 0-159.424-76.174-159.424-170.153 0-66.278 35.588-123.516 87.411-151.552 7.974-4.988 22.976-10.206 27.247-11.396 14.635-4.109 34.287-6.916 50.24-8.162 5.892-0.525 34.761-0.759 40.858-0.798v-0.119h511.074v76.002h-508.958zM307.93 149.623h-74.528v517.46h-108.908v79.584h183.436v-597.043zM42.667 627.321v-76.525h81.827v-401.172h71.608v477.697h-153.435z" />
<glyph unicode="&#xe901;" glyph-name="acute" d="M529.143 837.83c-25.173-4.678-52.011-11.688-68.399-16.295-17.011-4.783-34.681 5.133-39.464 22.146s5.132 34.683 22.145 39.466c17.489 4.916 47.113 12.68 75.46 17.871 14.11 2.583 28.723 4.684 41.754 5.334 11.115 0.554 27.755 0.57 41.271-6.185l1.301-0.649 1.233-0.765c14.976-9.265 22.583-25.121 26.726-35.827 4.676-12.077 7.936-25.858 10.402-38.672 2.5-12.997 4.433-26.389 6.076-37.89l0.115-0.825c1.664-11.647 2.944-20.615 4.262-26.972 3.584-17.306-7.539-34.241-24.845-37.827s-34.24 7.537-37.824 24.843c-1.741 8.392-3.277 19.18-4.766 29.62-0.098 0.707-0.201 1.413-0.303 2.116-1.062 7.469-2.163 15.066-3.383 22.531l-216.697-350.48c68.857-19.78 124.144-58.577 159.643-113.562 39.987-57.195 49.476-131.29 34.701-197.065h247.194c-6.537 5.295-12.958 10.283-18.671 14.711l-0.486 0.38c-3.857 2.987-7.556 5.854-10.526 8.247l-0.060 0.047c-2.3 1.852-6.622 5.333-9.719 8.87-11.644 13.295-10.3 33.51 2.995 45.154 12.971 11.354 32.521 10.355 44.279-2.035 0.102-0.077 0.841-0.734 2.633-2.18 2.509-2.022 5.811-4.578 9.971-7.804l0.132-0.102c8.209-6.366 19.034-14.767 29.705-23.808 10.517-8.909 21.862-19.26 30.831-29.713 4.484-5.227 9.028-11.234 12.591-17.741 3.375-6.165 7.245-15.253 7.245-26.027 0-18.249-10.33-32.811-17.459-41.348-8.060-9.647-18.304-18.799-27.827-26.722-6.801-5.658-14.182-11.447-20.894-16.713-2.671-2.095-5.235-4.105-7.616-5.99-9.071-7.194-15.492-12.604-19.366-16.661-12.207-12.783-32.465-13.248-45.244-1.041-12.783 12.207-13.248 32.465-1.041 45.244 7.33 7.676 17.054 15.599 25.886 22.605 2.948 2.338 5.845 4.608 8.7 6.848 0.759 0.593 1.515 1.186 2.27 1.779l-586.136-0.009c-0.561 0-1.324 0-2.265 0.009-1.876 0.017-4.482 0.073-7.607 0.218-6.165 0.29-14.751 0.947-23.936 2.492-8.922 1.498-19.905 4.070-30.126 8.828-9.246 4.305-21.893 12.288-29.033 26.799-6.743 11.802-8.020 24.175-7.552 33.916 0.497 10.342 3.043 19.93 5.614 27.383 2.629 7.62 5.705 14.208 8.064 18.82 1.198 2.342 2.257 4.262 3.052 5.658 0.399 0.7 0.734 1.271 0.992 1.707l0.326 0.542 0.116 0.192 0.046 0.073 0.029 0.047c0.004 0.009 0.009 0.013 27.174-16.772l-27.174 16.772 393.485 636.414zM217.789 138.739l0.284 0.004h274.356c16.427 54.178 9.843 116.544-21.303 160.785-0.26 0.375-0.516 0.755-0.764 1.139-28.535 44.459-76.182 77.197-141.418 91.665l-138.761-224.427c0.002 0.004 0.006 0.009 0 0-0.007-0.013-0.026-0.043-0.042-0.068l-0.388-0.67c-0.38-0.67-0.972-1.737-1.675-3.115-1.443-2.82-3.169-6.566-4.542-10.547-1.382-4.006-2.041-7.202-2.177-9.361 2.908-1.289 7.47-2.586 13.38-3.58 5.888-0.986 11.775-1.463 16.314-1.673 2.228-0.107 4.033-0.141 5.228-0.154l1.29-0.004 0.217 0.004zM181.361 142.758c-0.001 0-0.005 0.021-0.010 0.077l0.010-0.077z" />
<glyph unicode="&#xe902;" glyph-name="add-square" d="M478.118 312.469c0-18.709 15.168-33.882 33.882-33.882s33.882 15.168 33.882 33.882v101.649h101.649c18.709 0 33.882 15.168 33.882 33.882s-15.168 33.882-33.882 33.882h-101.649v101.648c0 18.713-15.168 33.882-33.882 33.882s-33.882-15.17-33.882-33.882v-101.648h-101.648c-18.713 0-33.882-15.168-33.882-33.882s15.17-33.882 33.882-33.882h101.648v-101.649zM209.668 64c-22.822 0-42.138 7.906-57.95 23.718s-23.718 35.127-23.718 57.95v604.664c0 22.822 7.906 42.138 23.718 57.95s35.129 23.718 57.95 23.718h604.664c22.822 0 42.138-7.906 57.95-23.718s23.718-35.129 23.718-57.95v-604.664c0-22.822-7.906-42.138-23.718-57.95s-35.127-23.718-57.95-23.718h-604.664zM209.668 131.763h604.664c3.477 0 6.665 1.451 9.557 4.348 2.897 2.893 4.348 6.080 4.348 9.557v604.664c0 3.479-1.451 6.664-4.348 9.555-2.893 2.899-6.080 4.348-9.557 4.348h-604.664c-3.479 0-6.664-1.449-9.555-4.348-2.899-2.891-4.348-6.076-4.348-9.555v-604.664c0-3.477 1.449-6.665 4.348-9.557 2.891-2.897 6.076-4.348 9.555-4.348z" />
<glyph unicode="&#xe903;" glyph-name="add" d="M512 821.333c17.673 0 32-14.327 32-32v-682.667c0-17.673-14.327-32-32-32s-32 14.327-32 32v682.667c0 17.673 14.327 32 32 32zM138.667 448c0 17.673 14.327 32 32 32h682.667c17.673 0 32-14.327 32-32s-14.327-32-32-32h-682.667c-17.673 0-32 14.327-32 32z" />
<glyph unicode="&#xe904;" glyph-name="alert-circle" d="M512 842.667c-217.968 0-394.667-176.698-394.667-394.667 0-217.967 176.698-394.667 394.667-394.667 217.967 0 394.667 176.7 394.667 394.667 0 217.968-176.7 394.667-394.667 394.667zM53.333 448c0 253.315 205.352 458.667 458.667 458.667s458.667-205.352 458.667-458.667c0-253.316-205.35-458.667-458.667-458.667-253.315 0-458.667 205.35-458.667 458.667zM469.001 320c0 23.565 19.102 42.667 42.667 42.667h0.384c23.565 0 42.667-19.102 42.667-42.667s-19.102-42.667-42.667-42.667h-0.384c-23.565 0-42.667 19.102-42.667 42.667zM512 650.667c17.673 0 32-14.327 32-32v-170.667c0-17.673-14.327-32-32-32s-32 14.327-32 32v170.667c0 17.673 14.327 32 32 32z" />
<glyph unicode="&#xe905;" glyph-name="alert" d="M147.045 64c-65.521 0-106.598 70.784-74.090 127.671l364.955 638.671c32.759 57.328 115.422 57.328 148.181 0l364.954-638.671c32.508-56.887-8.567-127.671-74.091-127.671h-729.909zM155.387 193.387c-15.974-28.442 4.581-63.556 37.201-63.556h638.823c32.623 0 53.175 35.115 37.201 63.556l-319.411 568.719c-16.303 29.031-58.099 29.031-74.402 0l-319.412-568.719zM512 224.819c10.598 0 19.482 3.396 26.65 10.193 7.172 6.793 10.756 15.211 10.756 25.254s-3.584 18.462-10.756 25.254c-7.168 6.797-16.051 10.193-26.65 10.193s-19.482-3.396-26.65-10.193c-7.172-6.793-10.756-15.211-10.756-25.254s3.584-18.462 10.756-25.254c7.168-6.797 16.051-10.193 26.65-10.193zM477.265 348.134c0-4.715 3.823-8.533 8.533-8.533h52.403c4.71 0 8.533 3.819 8.533 8.533v202.362c0 4.713-3.823 8.533-8.533 8.533h-52.403c-4.71 0-8.533-3.821-8.533-8.533v-202.362z" />
<glyph unicode="&#xe906;" glyph-name="apple" d="M168.817 683.628c42.356 52.906 103.012 90.771 172.499 90.771 69.203 0 129.391-36.928 170.666-74.528 41.276 37.6 101.466 74.528 170.667 74.528 69.487 0 130.142-37.865 172.501-90.771 42.385-52.944 68.565-123.302 68.565-194.148 0-153.882-22.165-266.803-111.292-401.114-0.282-0.427-0.576-0.845-0.883-1.254-35.2-47.155-78.391-79.394-128.111-89.869-50.095-10.556-102.289 1.937-153.169 35.482-10.445 6.882-26.108 6.882-36.553 0-50.88-33.545-103.078-46.037-153.171-35.482-49.722 10.475-92.912 42.714-128.112 89.869-0.306 0.41-0.601 0.828-0.884 1.254-89.126 134.31-111.292 247.232-111.292 401.114 0 70.845 26.182 141.204 68.567 194.148zM212.117 648.963c-34.826-43.501-56.401-101.736-56.401-159.483 0-145.911 20.429-247.211 101.611-369.796 29.55-39.364 61.935-61.278 94.645-68.169 32.506-6.848 69.771 0.201 111.204 27.52h0.004c28.962 19.093 68.642 19.093 97.604 0h0.004c41.434-27.319 78.699-34.368 111.206-27.52 32.708 6.891 65.092 28.804 94.643 68.169 81.182 122.586 101.611 223.885 101.611 369.796 0 57.747-21.572 115.981-56.401 159.483-34.854 43.538-80.866 69.969-129.199 69.969-50.863 0-99.268-28.356-135.659-62.223v-0.003c-19.682-18.307-50.334-18.307-70.012 0l-0.004 0.003c-36.39 33.868-84.794 62.223-135.658 62.223-48.333 0-94.344-26.431-129.199-69.969zM364.86 633.325c8.096-13.003 4.118-30.106-8.885-38.201-40.632-25.298-72.258-85.142-72.258-147.124 0-15.317-12.417-27.733-27.733-27.733s-27.733 12.416-27.733 27.733c0 77.41 38.58 156.96 98.409 194.21 13.002 8.096 30.106 4.117 38.201-8.885zM561.984 797.489c-16.397-30.372-22.268-68.154-22.268-93.489 0-15.316-12.416-27.733-27.733-27.733s-27.733 12.417-27.733 27.733c0 31.554 6.933 79.105 28.932 119.844 22.647 41.941 62.78 78.556 126.801 78.556 15.317 0 27.733-12.416 27.733-27.733s-12.416-27.733-27.733-27.733c-38.379 0-62.246-20.274-77.999-49.444z" />
<glyph unicode="&#xe907;" glyph-name="archive" d="M211.436 21.333c-22.397 0-41.529 7.932-57.398 23.791-15.861 15.872-23.792 35.004-23.792 57.399v502.927c-13.182 6.797-23.965 16.457-32.348 28.98-8.376 12.523-12.564 26.962-12.564 43.318v115.728c0 22.396 7.931 41.529 23.792 57.398 15.869 15.861 35.002 23.792 57.398 23.792h690.953c22.396 0 41.527-7.931 57.399-23.792 15.859-15.869 23.791-35.002 23.791-57.398v-115.728c0-16.356-4.19-30.795-12.565-43.318-8.384-12.523-19.166-22.183-32.346-28.98v-502.927c0-22.396-7.932-41.527-23.795-57.399-15.868-15.859-34.999-23.791-57.395-23.791h-601.129zM197.614 596.559v-491.88c0-4.604 1.654-8.418 4.963-11.439 3.316-3.025 7.422-4.54 12.317-4.54h597.671c4.032 0 7.347 1.297 9.937 3.887s3.883 5.901 3.883 9.937v494.035h-628.771zM166.523 663.927h690.953c4.036 0 7.347 1.295 9.937 3.885s3.887 5.902 3.887 9.937v115.728c0 4.035-1.297 7.347-3.887 9.937s-5.901 3.885-9.937 3.885h-690.953c-4.035 0-7.347-1.295-9.937-3.885s-3.885-5.902-3.885-9.937v-115.728c0-4.035 1.295-7.347 3.885-9.937s5.902-3.885 9.937-3.885zM385.897 415.825c0-17.766 14.405-32.175 32.174-32.175h187.855c17.771 0 32.175 14.409 32.175 32.175 0 17.771-14.404 32.175-32.175 32.175h-187.855c-17.769 0-32.174-14.404-32.174-32.175z" />
<glyph unicode="&#xe908;" glyph-name="arrow-down-1" d="M512 821.333c17.673 0 32-14.327 32-32v-682.667c0-17.673-14.327-32-32-32s-32 14.327-32 32v682.667c0 17.673 14.327 32 32 32zM324.426 338.974c0 0.004 0.001 0 0 0l0.089-0.119 0.311-0.418 1.27-1.711c1.126-1.51 2.8-3.746 4.959-6.605 4.319-5.722 10.573-13.918 18.259-23.765 15.399-19.733 36.425-45.935 59.092-72.043 22.804-26.266 46.646-51.708 67.723-70.332 10.573-9.344 19.703-16.299 27.076-20.74 4.804-2.901 7.633-3.972 8.785-4.365 1.148 0.393 3.977 1.463 8.785 4.365 7.373 4.442 16.499 11.396 27.076 20.74 21.077 18.624 44.919 44.066 67.725 70.332 22.669 26.108 43.695 52.309 59.093 72.043 7.689 9.847 13.943 18.048 18.261 23.765 2.159 2.859 3.831 5.094 4.958 6.605l1.271 1.711 0.384 0.521c10.479 14.229 30.528 17.289 44.757 6.81 14.234-10.479 17.271-30.511 6.793-44.745l-25.766 18.978c25.766-18.978 25.766-18.974 25.766-18.978l-0.141-0.188-0.367-0.495-1.378-1.856c-1.203-1.617-2.961-3.964-5.21-6.938-4.493-5.948-10.953-14.417-18.871-24.567-15.821-20.267-37.585-47.398-61.227-74.624-23.501-27.068-49.481-54.959-73.673-76.335-12.062-10.654-24.431-20.369-36.412-27.593-11.102-6.69-25.89-13.76-41.826-13.76-15.94 0-30.729 7.070-41.83 13.76-11.981 7.223-24.35 16.939-36.407 27.593-24.194 21.376-50.173 49.267-73.673 76.335-23.638 27.226-45.403 54.357-61.22 74.624-7.921 10.15-14.382 18.62-18.874 24.567-2.247 2.978-4.003 5.321-5.206 6.938l-1.382 1.856-0.491 0.666c-0.003 0.004-0.014 0.017 25.753 18.995l-25.753-18.995c-10.48 14.229-7.453 34.283 6.777 44.762s34.262 7.437 44.742-6.793z" />
<glyph unicode="&#xe909;" glyph-name="arrow-down" d="M512 320l-256 256h512l-256-256z" />
<glyph unicode="&#xe90a;" glyph-name="arrow-expand" d="M747.674 792.645c-15.927-1.914-32.132-3.841-43.23-3.999-17.673-0.251-32.201 13.871-32.452 31.542s13.871 32.2 31.543 32.451c6.916 0.098 19.136 1.461 36.506 3.548 1.263 0.152 2.547 0.307 3.849 0.464 15.633 1.883 33.839 4.076 51.81 5.562 19.285 1.594 39.744 2.507 57.655 1.072 8.973-0.719 18.304-2.097 27.004-4.731 8.427-2.552 18.586-6.97 26.901-15.284 8.311-8.314 12.732-18.475 15.283-26.9 2.633-8.702 4.011-18.029 4.732-27.003 1.434-17.914 0.521-38.37-1.075-57.655-1.485-17.97-3.678-36.174-5.559-51.806-0.158-1.303-0.311-2.589-0.465-3.854-2.086-17.367-3.447-29.589-3.546-36.504-0.252-17.671-14.78-31.793-32.452-31.542s-31.795 14.78-31.543 32.451c0.158 11.099 2.086 27.302 3.998 43.23 0.149 1.222 0.299 2.452 0.448 3.691 1.903 15.826 3.959 32.886 5.338 49.604 0.503 6.056 0.9 11.907 1.169 17.489l-264.875-264.929c-12.493-12.497-32.755-12.497-45.252-0.004-12.497 12.497-12.501 32.759-0.004 45.256l264.738 264.792c-5.504-0.27-11.264-0.662-17.225-1.155-16.717-1.382-33.775-3.436-49.604-5.341-1.237-0.149-2.466-0.297-3.691-0.444zM897.604 833.613c0 0 0 0 0 0v0zM470.707 406.733c12.497-12.497 12.497-32.759 0.004-45.257l-265.023-265.071c5.534 0.273 11.333 0.666 17.331 1.161 16.719 1.382 33.778 3.435 49.604 5.342 1.238 0.149 2.469 0.299 3.691 0.444 15.929 1.916 32.131 3.84 43.23 3.998 17.671 0.252 32.2-13.871 32.451-31.539 0.251-17.673-13.871-32.201-31.542-32.452-6.915-0.098-19.138-1.463-36.504-3.55-1.265-0.149-2.551-0.307-3.854-0.461-15.632-1.886-33.836-4.079-51.806-5.564-19.286-1.591-39.741-2.505-57.655-1.071-8.974 0.717-18.301 2.095-27.003 4.732-8.426 2.551-18.587 6.967-26.9 15.283-8.314 8.311-12.733 18.475-15.284 26.901-2.635 8.7-4.013 18.027-4.731 27.004-1.435 17.911-0.521 38.366 1.072 57.655 1.485 17.971 3.678 36.177 5.562 51.806 0.157 1.306 0.312 2.59 0.464 3.853 2.087 17.365 3.45 29.589 3.548 36.506 0.251 17.668 14.78 31.791 32.451 31.539s31.793-14.78 31.542-32.448c-0.158-11.102-2.085-27.302-3.999-43.234-0.147-1.22-0.295-2.453-0.444-3.691-1.905-15.825-3.959-32.883-5.341-49.604-0.497-6.016-0.893-11.831-1.162-17.378l265.043 265.092c12.497 12.497 32.755 12.501 45.256 0.004zM126.609 62.605c0 0 0 0 0 0v0z" />
<glyph unicode="&#xe90b;" glyph-name="arrow-left" d="M653.858 131.311c13.342-13.521 35.196-13.427 48.418 0.213 12.817 13.218 12.723 34.257-0.209 47.36l-236.002 239.147c-16.397 16.614-16.397 43.324 0 59.938l236.002 239.146c12.932 13.105 13.026 34.142 0.209 47.361-13.222 13.638-35.076 13.735-48.418 0.214l-282.95-286.721c-16.397-16.614-16.397-43.324 0-59.938l282.95-286.72z" />
<glyph unicode="&#xe90c;" glyph-name="arrow-reload-horizontal" d="M96 448c0 180.777 133.56 309.333 309.333 309.333h469.333c17.673 0 32-14.327 32-32s-14.327-32-32-32h-469.333c-141.093 0-245.333-100.566-245.333-245.333 0-17.673-14.327-32-32-32s-32 14.327-32 32zM896 480c17.673 0 32-14.327 32-32 0-180.779-133.559-309.333-309.333-309.333h-469.333c-17.673 0-32 14.327-32 32s14.327 32 32 32h469.333c141.094 0 245.333 100.565 245.333 245.333 0 17.673 14.327 32 32 32zM763.571 850.977c10.479 14.23 30.511 17.27 44.74 6.79l-18.978-25.766c18.978 25.766 18.974 25.769 18.978 25.766l0.111-0.083 0.265-0.196 0.969-0.719c0.832-0.621 2.035-1.519 3.55-2.665 3.029-2.289 7.334-5.571 12.484-9.591 10.27-8.013 24.068-19.081 37.961-31.143 13.73-11.924 28.288-25.449 39.667-38.324 5.653-6.401 11.2-13.396 15.505-20.538 3.78-6.265 9.178-16.75 9.178-29.175s-5.397-22.91-9.178-29.175c-4.305-7.143-9.852-14.138-15.505-20.539-11.379-12.875-25.937-26.4-39.667-38.324-13.892-12.061-27.695-23.129-37.961-31.142-5.15-4.020-9.455-7.302-12.484-9.591-1.515-1.146-2.718-2.044-3.55-2.665l-1.306-0.97c-0.004-0.002-0.038-0.027-19.017 25.739l18.978-25.766c-14.229-10.48-34.261-7.44-44.74 6.79-10.483 14.229-7.441 34.259 6.784 44.74 0-0.001 0 0.001 0 0l0.047 0.034 0.192 0.143 0.819 0.607c0.73 0.544 1.818 1.36 3.217 2.418 2.803 2.116 6.835 5.191 11.686 8.975 9.728 7.595 22.596 17.923 35.371 29.015 12.937 11.229 25.045 22.614 33.668 32.374 2.505 2.836 4.493 5.286 6.020 7.337-1.527 2.051-3.516 4.501-6.020 7.337-8.623 9.76-20.732 21.145-33.668 32.375-12.774 11.091-25.643 21.42-35.371 29.015-4.851 3.784-8.883 6.86-11.686 8.976-1.399 1.058-2.487 1.874-3.221 2.418l-1.007 0.75-0.043 0.030c0 0.001 0.004-0.001 0 0zM763.571 850.977c-10.483-14.229-7.437-34.263 6.788-44.744l-6.788 44.744zM253.642 251.567c-0.001 0 0.001 0 0 0l-0.042-0.030-0.193-0.145-0.817-0.606c-0.73-0.542-1.821-1.361-3.221-2.419-2.802-2.116-6.833-5.188-11.683-8.973-9.732-7.595-22.6-17.924-35.374-29.018-12.933-11.226-25.042-22.613-33.666-32.371-2.506-2.837-4.494-5.286-6.020-7.339 1.527-2.052 3.514-4.501 6.020-7.334 8.624-9.762 20.733-21.146 33.666-32.375 12.774-11.093 25.643-21.419 35.375-29.013 4.849-3.785 8.881-6.861 11.683-8.977 1.4-1.058 2.491-1.873 3.221-2.419l0.817-0.606 0.193-0.145 0.041-0.030c14.228-10.479 17.271-30.511 6.792-44.74-10.481-14.234-30.512-17.271-44.743-6.793l18.976 25.766c-18.976-25.766-18.973-25.766-18.976-25.766l-0.112 0.085-0.265 0.192-0.967 0.721c-0.832 0.619-2.033 1.519-3.55 2.662-3.031 2.291-7.333 5.572-12.484 9.591-10.268 8.013-24.067 19.081-37.959 31.142-13.734 11.925-28.291 25.451-39.668 38.327-5.655 6.4-11.202 13.393-15.508 20.535-3.777 6.268-9.178 16.751-9.178 29.175s5.402 22.912 9.178 29.175c4.306 7.142 9.853 14.135 15.508 20.54 11.376 12.873 25.934 26.398 39.667 38.323 13.892 12.062 27.691 23.13 37.959 31.142 5.151 4.019 9.452 7.3 12.484 9.591 1.516 1.143 2.717 2.044 3.55 2.662l1.231 0.917 0.076 0.055c0.003 0 0.037 0.026 19.013-25.741l-18.976 25.766c14.23 10.479 34.262 7.441 44.742-6.788s7.438-34.261-6.79-44.745z" />
<glyph unicode="&#xe90d;" glyph-name="arrow-right-1" d="M138.667 448.009c0 17.673 14.327 32 32 32h682.667c17.673 0 32-14.327 32-32s-14.327-32-32-32h-682.667c-17.673 0-32 14.327-32 32zM614.234 680.31c10.479 14.23 30.511 17.27 44.74 6.79l-18.978-25.766c18.978 25.766 18.974 25.769 18.978 25.766l0.188-0.14 0.495-0.365 1.86-1.382c1.613-1.203 3.959-2.959 6.933-5.206 5.948-4.492 14.417-10.953 24.567-18.874 20.271-15.817 47.403-37.583 74.628-61.221 27.063-23.5 54.955-49.481 76.331-73.674 10.658-12.058 20.369-24.427 27.593-36.407 6.694-11.106 13.76-25.89 13.76-41.83s-7.066-30.724-13.76-41.826c-7.223-11.981-16.934-24.35-27.588-36.412-21.376-24.192-49.267-50.172-76.335-73.673-27.226-23.637-54.357-45.406-74.624-61.222-10.15-7.923-18.62-14.383-24.567-18.876-2.974-2.244-5.321-4.002-6.933-5.205l-1.86-1.382-0.666-0.491c0 0-0.017-0.013-18.995 25.754l18.995-25.754c-14.229-10.479-34.278-7.454-44.757 6.775-10.483 14.234-7.441 34.266 6.788 44.745l0.119 0.090 0.422 0.311 1.707 1.267c1.51 1.126 3.75 2.803 6.609 4.962 5.717 4.318 13.914 10.573 23.765 18.257 19.729 15.398 45.931 36.429 72.038 59.093 26.266 22.805 51.708 46.647 70.332 67.725 9.344 10.577 16.294 19.703 20.74 27.076 2.897 4.809 3.972 7.637 4.361 8.785-0.388 1.152-1.463 3.977-4.361 8.785-4.446 7.373-11.396 16.503-20.74 27.076-18.624 21.077-44.066 44.919-70.336 67.724-26.108 22.668-52.309 43.695-72.038 59.093-9.852 7.686-18.048 13.94-23.765 18.259-2.859 2.159-5.099 3.833-6.609 4.959l-1.707 1.27-0.521 0.384z" />
<glyph unicode="&#xe90e;" glyph-name="arrow-right" d="M412.81 131.311c-13.343-13.521-35.195-13.427-48.419 0.213-12.816 13.218-12.723 34.257 0.209 47.36l236.001 239.147c16.397 16.614 16.397 43.324 0 59.938l-236.001 239.146c-12.932 13.105-13.026 34.142-0.209 47.361 13.223 13.638 35.076 13.735 48.419 0.214l282.947-286.721c16.397-16.614 16.397-43.324 0-59.938l-282.947-286.72z" />
<glyph unicode="&#xe90f;" glyph-name="arrow-shrink" d="M918.601 854.659c12.493-12.503 12.48-32.764-0.021-45.255l-286.49-286.23c5.645 0.269 11.567 0.67 17.698 1.178 16.717 1.382 33.775 3.435 49.6 5.342 1.242 0.149 2.47 0.299 3.695 0.444 15.927 1.916 32.128 3.841 43.23 3.999 17.668 0.251 32.201-13.872 32.452-31.54 0.247-17.673-13.871-32.201-31.543-32.452-6.916-0.098-19.14-1.463-36.506-3.55-1.263-0.149-2.547-0.307-3.849-0.461-15.633-1.886-33.839-4.079-51.81-5.564-19.285-1.591-39.744-2.509-57.655-1.071-8.977 0.717-18.304 2.095-27.004 4.732-8.427 2.551-18.586 6.967-26.901 15.283-8.316 8.311-12.732 18.475-15.283 26.901-2.637 8.7-4.011 18.027-4.732 27.001-1.434 17.914-0.521 38.369 1.071 57.655 1.485 17.97 3.678 36.174 5.564 51.806 0.158 1.303 0.311 2.588 0.461 3.854 2.091 17.367 3.452 29.589 3.55 36.504 0.252 17.672 14.78 31.793 32.452 31.542s31.791-14.78 31.543-32.451c-0.158-11.099-2.086-27.301-4.002-43.23-0.145-1.223-0.294-2.454-0.444-3.693-1.903-15.825-3.959-32.884-5.342-49.602-0.482-5.884-0.875-11.576-1.143-17.015l286.153 285.893c12.506 12.491 32.764 12.482 45.257-0.020zM321.117 366.093c-15.929-1.916-32.131-3.84-43.23-3.998-17.671-0.252-32.201 13.871-32.451 31.539-0.251 17.673 13.871 32.201 31.542 32.452 6.915 0.098 19.138 1.463 36.505 3.55 1.265 0.149 2.551 0.307 3.854 0.465 15.632 1.882 33.836 4.075 51.806 5.559 19.286 1.591 39.741 2.505 57.656 1.071 8.973-0.717 18.3-2.095 27.004-4.732 8.427-2.551 18.586-6.967 26.901-15.283 8.311-8.311 12.732-18.475 15.283-26.901 2.633-8.7 4.011-18.027 4.732-26.999 1.434-17.916 0.521-38.37-1.075-57.66-1.485-17.967-3.678-36.173-5.559-51.806-0.158-1.301-0.311-2.586-0.465-3.853-2.086-17.365-3.447-29.589-3.546-36.506-0.252-17.668-14.784-31.791-32.452-31.539-17.673 0.252-31.794 14.78-31.543 32.452 0.157 11.098 2.086 27.298 3.997 43.23 0.149 1.22 0.294 2.453 0.444 3.691 1.907 15.825 3.959 32.883 5.342 49.604 0.503 6.106 0.905 12.002 1.173 17.626l-286.395-286.711c-12.49-12.506-32.751-12.518-45.255-0.026-12.503 12.489-12.515 32.751-0.025 45.252l286.136 286.455c-5.459-0.269-11.174-0.661-17.083-1.148-16.719-1.382-33.778-3.435-49.605-5.342-1.238-0.149-2.469-0.299-3.691-0.444z" />
<glyph unicode="&#xe910;" glyph-name="arrow-up" d="M256 320l256 256 256-256h-512z" />
<glyph unicode="&#xe911;" glyph-name="attachment" d="M600.512 754.793c60.275 60.276 158.003 60.276 218.278 0 60.279-60.277 60.279-158.004 0.004-218.279l-0.004-0.001-65.882-65.887c-12.497-12.497-12.497-32.755 0-45.252s32.759-12.497 45.257 0l65.882 65.886c0 0 0 0 0 0 85.269 85.267 85.269 223.517 0 308.788s-223.522 85.271-308.787 0c0 0 0 0 0 0l-395.308-395.307c-85.269-85.269-85.269-223.518 0-308.787s223.52-85.269 308.788 0l148.241 148.241c57.98 57.98 57.98 151.979 0 209.963v0c-57.98 57.98-151.983 57.98-209.964 0l-82.355-82.355c-12.497-12.497-12.497-32.755 0-45.252s32.758-12.497 45.255 0l82.354 82.355c32.986 32.986 86.468 32.986 119.454 0 32.99-32.99 32.99-86.473 0.004-119.458v0l-148.242-148.241c-60.276-60.275-158.005-60.275-218.28 0s-60.276 158.007 0 218.283l395.305 395.305z" />
<glyph unicode="&#xe912;" glyph-name="baby" d="M511.983 846.933c-220.324 0-398.933-178.608-398.933-398.933s178.609-398.933 398.933-398.933c220.326 0 398.933 178.607 398.933 398.933s-178.607 398.933-398.933 398.933zM57.583 448c0 250.958 203.442 454.4 454.4 454.4s454.4-203.441 454.4-454.4c0-250.957-203.443-454.4-454.4-454.4s-454.4 203.443-454.4 454.4zM408.021 297.877c11.346 10.291 28.886 9.434 39.173-1.916 20.736-22.865 43.106-33.562 64.789-33.562s44.053 10.697 64.789 33.562c10.287 11.349 27.827 12.207 39.172 1.916 11.349-10.287 12.207-27.827 1.916-39.172-28.151-31.049-64.457-51.772-105.877-51.772s-77.726 20.723-105.877 51.772c-10.289 11.345-9.431 28.885 1.915 39.172zM278.105 487.962c15.93 17.57 37.57 30.438 63.212 30.438s47.282-12.868 63.212-30.438c10.288-11.345 9.43-28.885-1.917-39.172-11.347-10.291-28.885-9.434-39.174 1.916-8.512 9.387-16.212 12.228-22.121 12.228s-13.609-2.842-22.121-12.228c-10.289-11.349-27.827-12.207-39.174-1.916-11.347 10.287-12.205 27.827-1.917 39.172zM619.439 487.962c15.927 17.57 37.572 30.438 63.211 30.438s47.283-12.868 63.215-30.438c10.287-11.349 9.429-28.885-1.92-39.177-11.349-10.287-28.885-9.425-39.172 1.92-8.512 9.387-16.213 12.228-22.123 12.228s-13.611-2.842-22.118-12.228c-10.291-11.345-27.827-12.207-39.177-1.92-11.345 10.291-12.207 27.827-1.916 39.177zM356.25 746.666c0 86.009 69.722 155.733 155.733 155.733 15.317 0 27.733-12.416 27.733-27.733s-12.416-27.733-27.733-27.733c-55.377 0-100.266-44.89-100.266-100.267s44.889-100.267 100.266-100.267c25.698 0 49.079 9.631 66.837 25.525 11.413 10.214 28.949 9.242 39.164-2.171s9.242-28.946-2.172-39.161c-27.537-24.642-63.957-39.66-103.829-39.66-86.011 0-155.733 69.725-155.733 155.733z" />
<glyph unicode="&#xe913;" glyph-name="border-all" d="M361.412 21.333c-76.582 0-141.741 26.867-195.476 80.602s-80.602 118.895-80.602 195.477v301.176c0 76.582 26.868 141.741 80.602 195.476s118.894 80.602 195.476 80.602h301.176c76.582 0 141.743-26.868 195.477-80.602s80.602-118.894 80.602-195.476v-301.176c0-76.582-26.867-141.743-80.602-195.477s-118.895-80.602-195.477-80.602h-301.176zM361.412 96.627h301.176c55.215 0 102.485 19.661 141.803 58.982 39.322 39.317 58.982 86.588 58.982 141.803v301.176c0 55.216-19.661 102.484-58.982 141.804-39.317 39.32-86.588 58.98-141.803 58.98h-301.176c-55.216 0-102.484-19.66-141.804-58.98s-58.98-86.588-58.98-141.804v-301.176c0-55.215 19.66-102.485 58.98-141.803 39.32-39.322 86.588-58.982 141.804-58.982z" />
<glyph unicode="&#xe914;" glyph-name="brochure" d="M403.773 853.333h216.456c38.899 0 70.255 0.001 94.916-3.314 25.6-3.442 47.159-10.807 64.282-27.927 17.118-17.121 24.482-38.679 27.925-64.282 1.314-9.76 2.108-20.567 2.586-32.477h2.236c28.885 0.001 52.706 0.001 71.561-2.534 19.793-2.661 37.278-8.463 51.273-22.459 13.999-13.997 19.802-31.48 22.46-51.273 2.534-18.853 2.534-42.673 2.534-71.561v-301.679c0-28.89 0-52.706-2.534-71.561-2.658-19.793-8.461-37.274-22.455-51.273-13.999-13.995-31.484-19.802-51.277-22.46-18.854-2.534-42.671-2.534-71.561-2.534h-6.451c-3.989-21.175-11.499-39.292-26.295-54.093-17.122-17.118-38.682-24.482-64.282-27.925-24.661-3.315-56.017-3.315-94.916-3.315h-216.457c-38.9 0-70.255 0-94.915 3.315-25.603 3.443-47.16 10.807-64.282 27.93-14.799 14.797-22.309 32.913-26.296 54.089h-6.452c-28.888 0-52.708 0-71.561 2.534-19.793 2.658-37.274 8.461-51.272 22.455-13.996 13.999-19.799 31.484-22.461 51.277-2.535 18.854-2.534 42.675-2.534 71.561v301.678c-0.001 28.888-0.001 52.709 2.534 71.563 2.661 19.793 8.463 37.275 22.46 51.272s31.478 19.799 51.272 22.46c18.854 2.535 42.675 2.534 71.562 2.534h2.236c0.479 11.909 1.272 22.717 2.584 32.477 3.442 25.603 10.807 47.16 27.927 64.281s38.679 24.486 64.282 27.928c24.66 3.315 56.015 3.315 94.916 3.314zM213.333 682.667c-30.773 0-51.706-0.045-67.383-2.153-15.063-2.025-22.039-5.596-26.787-10.344s-8.319-11.725-10.344-26.787c-2.108-15.676-2.153-36.61-2.153-67.383v-298.667c0-30.771 0.045-51.708 2.153-67.383 2.025-15.061 5.596-22.037 10.345-26.79 4.748-4.745 11.725-8.316 26.786-10.338 15.677-2.108 36.61-2.155 67.383-2.155h0.73c-0.731 18.185-0.731 38.933-0.73 62.438v429.789c0 6.822-0.018 13.411 0 19.773zM809.937 170.667h0.73c30.771 0 51.708 0.047 67.383 2.155 15.061 2.022 22.042 5.594 26.79 10.342 4.745 4.749 8.316 11.729 10.338 26.786 2.108 15.676 2.155 36.612 2.155 67.383v298.667c0 30.773-0.047 51.706-2.155 67.383-2.022 15.061-5.594 22.038-10.338 26.786-4.753 4.749-11.729 8.32-26.79 10.345-15.676 2.108-36.612 2.153-67.383 2.153 0.017-6.362 0-12.951 0-19.772v-429.79c0-23.505 0-44.254-0.73-62.438zM314.542 807.732c-20.872-2.806-31.924-7.939-39.796-15.811s-13.005-18.925-15.811-39.797c-2.889-21.486-2.934-49.962-2.934-90.791v-426.667c0-40.828 0.045-69.303 2.934-90.79 2.806-20.873 7.939-31.923 15.811-39.795 7.872-7.876 18.925-13.009 39.796-15.812 21.486-2.889 49.962-2.935 90.791-2.935h213.333c40.828 0 69.303 0.047 90.79 2.935 20.873 2.803 31.923 7.936 39.795 15.812 7.876 7.872 13.009 18.923 15.812 39.795 2.889 21.487 2.935 49.963 2.935 90.79v426.667c0 40.829-0.047 69.306-2.935 90.791-2.803 20.872-7.936 31.924-15.808 39.796-7.876 7.872-18.927 13.006-39.799 15.811-21.487 2.889-49.963 2.934-90.79 2.934h-213.333c-40.829 0-69.306-0.045-90.791-2.934zM384 618.667c0 11.782 9.551 21.333 21.333 21.333h213.333c11.78 0 21.333-9.551 21.333-21.333s-9.553-21.333-21.333-21.333h-213.333c-11.782 0-21.333 9.551-21.333 21.333zM384 448c0 11.78 9.551 21.333 21.333 21.333h213.333c11.78 0 21.333-9.553 21.333-21.333s-9.553-21.333-21.333-21.333h-213.333c-11.782 0-21.333 9.553-21.333 21.333zM384 277.333c0 11.78 9.551 21.333 21.333 21.333h213.333c11.78 0 21.333-9.553 21.333-21.333s-9.553-21.333-21.333-21.333h-213.333c-11.782 0-21.333 9.553-21.333 21.333z" />
<glyph unicode="&#xe915;" glyph-name="bubble-chat-1" d="M244.256 122.581l-89.914-88.977c-12.778-12.655-27.475-15.522-44.093-8.602-16.61 6.925-24.915 19.396-24.915 37.406v646.57c0 22.455 7.86 41.461 23.579 57.018s34.923 23.336 57.611 23.336h690.953c22.69 0 41.89-7.779 57.613-23.336 15.718-15.558 23.578-34.564 23.578-57.018v-506.043c0-22.455-7.859-41.459-23.578-57.015-15.723-15.561-34.923-23.339-57.613-23.339h-613.221zM215.579 189.257h641.897c3.46 0 6.626 1.425 9.498 4.279 2.884 2.846 4.326 5.978 4.326 9.399v506.043c0 3.423-1.442 6.556-4.326 9.401-2.871 2.852-6.037 4.278-9.498 4.278h-690.953c-3.458 0-6.624-1.426-9.499-4.278-2.882-2.845-4.323-5.978-4.323-9.401v-581.273l62.877 61.551zM332.351 416.64c10.996 0 20.368 3.831 28.115 11.49 7.74 7.667 11.61 16.943 11.61 27.827s-3.87 20.16-11.61 27.827c-7.747 7.659-17.119 11.49-28.115 11.49s-20.367-3.831-28.115-11.49c-7.74-7.667-11.61-16.943-11.61-27.827s3.87-20.16 11.61-27.827c7.747-7.659 17.119-11.49 28.115-11.49zM512 416.64c10.995 0 20.369 3.831 28.113 11.49 7.744 7.667 11.614 16.943 11.614 27.827s-3.87 20.16-11.614 27.827c-7.744 7.659-17.118 11.49-28.113 11.49s-20.369-3.831-28.113-11.49c-7.744-7.667-11.614-16.943-11.614-27.827s3.87-20.16 11.614-27.827c7.744-7.659 17.118-11.49 28.113-11.49zM691.648 416.64c10.995 0 20.369 3.831 28.117 11.49 7.74 7.667 11.61 16.943 11.61 27.827s-3.87 20.16-11.61 27.827c-7.748 7.659-17.122 11.49-28.117 11.49s-20.365-3.831-28.113-11.49c-7.74-7.667-11.61-16.943-11.61-27.827s3.87-20.16 11.61-27.827c7.748-7.659 17.118-11.49 28.113-11.49z" />
<glyph unicode="&#xe916;" glyph-name="bubble-chat-notification" d="M242.191 160.947l-88.747-85.197c-12.611-12.117-27.118-14.861-43.52-8.239-16.394 6.635-24.591 18.573-24.591 35.819v619.095c0 21.501 7.758 39.699 23.273 54.596s34.47 22.345 56.863 22.345h406.631c9.434 0 17.404-3.192 23.915-9.576 6.507-6.384 9.617-14.106 9.331-23.164-0.282-8.782-3.605-16.163-9.975-22.143-6.362-5.972-14.118-8.959-23.27-8.959h-406.631c-3.413 0-6.538-1.365-9.376-4.096-2.844-2.724-4.267-5.725-4.267-9.002v-556.575l62.061 58.94h633.562c3.413 0 6.537 1.365 9.374 4.096 2.846 2.722 4.267 5.722 4.267 9.003v286.054c0 9.058 3.187 16.643 9.553 22.758 6.362 6.108 14.259 9.161 23.693 9.161 9.438 0 17.335-3.054 23.697-9.161 6.366-6.115 9.553-13.699 9.553-22.758v-286.054c0-21.504-7.761-39.701-23.275-54.596-15.514-14.899-34.47-22.345-56.862-22.345h-605.258zM816.764 640.58c-33.818 0-62.588 11.389-86.31 34.166-23.731 22.784-35.597 50.41-35.597 82.877s11.866 60.090 35.597 82.867c23.723 22.784 52.493 34.177 86.31 34.177 33.813 0 62.583-11.392 86.306-34.177 23.731-22.777 35.597-50.4 35.597-82.867s-11.866-60.093-35.597-82.877c-23.723-22.777-52.493-34.166-86.306-34.166zM151.827 722.425v0z" />
<glyph unicode="&#xe917;" glyph-name="bubble-chat" d="M244.256 122.581l-89.914-88.977c-12.778-12.655-27.475-15.522-44.093-8.602-16.61 6.925-24.915 19.396-24.915 37.406v646.57c0 22.455 7.86 41.461 23.579 57.018s34.923 23.336 57.611 23.336h690.953c22.69 0 41.89-7.779 57.613-23.336 15.718-15.558 23.578-34.564 23.578-57.018v-506.043c0-22.455-7.859-41.459-23.578-57.015-15.723-15.561-34.923-23.339-57.613-23.339h-613.221zM215.579 189.257h641.897c3.46 0 6.626 1.425 9.498 4.279 2.884 2.846 4.326 5.978 4.326 9.399v506.043c0 3.423-1.442 6.556-4.326 9.401-2.871 2.852-6.037 4.278-9.498 4.278h-690.953c-3.458 0-6.624-1.426-9.499-4.278-2.882-2.845-4.323-5.978-4.323-9.401v-581.273l62.877 61.551zM332.351 416.64c10.996 0 20.368 3.831 28.115 11.49 7.74 7.667 11.61 16.943 11.61 27.827s-3.87 20.16-11.61 27.827c-7.747 7.659-17.119 11.49-28.115 11.49s-20.367-3.831-28.115-11.49c-7.74-7.667-11.61-16.943-11.61-27.827s3.87-20.16 11.61-27.827c7.747-7.659 17.119-11.49 28.115-11.49zM512 416.64c10.995 0 20.369 3.831 28.113 11.49 7.744 7.667 11.614 16.943 11.614 27.827s-3.87 20.16-11.614 27.827c-7.744 7.659-17.118 11.49-28.113 11.49s-20.369-3.831-28.113-11.49c-7.744-7.667-11.614-16.943-11.614-27.827s3.87-20.16 11.614-27.827c7.744-7.659 17.118-11.49 28.113-11.49zM691.648 416.64c10.995 0 20.369 3.831 28.117 11.49 7.74 7.667 11.61 16.943 11.61 27.827s-3.87 20.16-11.61 27.827c-7.748 7.659-17.122 11.49-28.117 11.49s-20.365-3.831-28.113-11.49c-7.74-7.667-11.61-16.943-11.61-27.827s3.87-20.16 11.61-27.827c7.748-7.659 17.118-11.49 28.113-11.49z" />
<glyph unicode="&#xe918;" glyph-name="building" d="M53.333 21.333c0 17.673 14.327 32 32 32h853.333c17.673 0 32-14.327 32-32s-14.327-32-32-32h-853.333c-17.673 0-32 14.327-32 32zM525.79 602.147c20.386 4.478 44.378 5.853 71.543 5.853h170.667c27.166 0 51.157-1.375 71.543-5.853 20.745-4.558 39.744-12.754 54.797-27.807s23.249-34.051 27.806-54.796c4.48-20.386 5.854-44.378 5.854-71.543v-426.667c0-17.673-14.327-32-32-32h-426.667c-17.673 0-32 14.327-32 32v426.667c0 27.166 1.374 51.157 5.854 71.543 4.557 20.745 12.753 39.743 27.806 54.796s34.052 23.249 54.797 27.807zM505.698 505.809c-2.978-13.542-4.365-32.026-4.365-57.809v-394.667h362.667v394.667c0 25.783-1.387 44.267-4.365 57.809-2.893 13.184-6.839 19.567-10.551 23.275-3.708 3.712-10.091 7.658-23.275 10.554-13.542 2.975-32.026 4.363-57.809 4.363h-170.667c-25.783 0-44.267-1.388-57.809-4.363-13.184-2.896-19.567-6.842-23.275-10.554-3.712-3.708-7.659-10.091-10.551-23.275zM164.363 804.477c-2.975-13.544-4.363-32.028-4.363-57.81v-693.333h480v-64h-512c-17.673 0-32 14.327-32 32v725.333c0 27.167 1.375 51.158 5.853 71.542 4.558 20.746 12.754 39.744 27.807 54.797s34.051 23.249 54.797 27.807c20.384 4.478 44.375 5.853 71.542 5.853h256c27.166 0 51.157-1.375 71.543-5.853 20.745-4.558 39.744-12.754 54.797-27.807s23.249-34.051 27.806-54.797c4.48-20.384 5.854-44.375 5.854-71.542v-170.667h-64v170.667c0 25.782-1.387 44.266-4.365 57.81-2.893 13.181-6.839 19.565-10.551 23.275-3.708 3.71-10.091 7.657-23.275 10.553-13.542 2.975-32.026 4.363-57.809 4.363h-256c-25.782 0-44.266-1.388-57.81-4.363-13.181-2.896-19.565-6.843-23.275-10.553s-7.657-10.093-10.553-23.275zM96 704c0 17.673 14.327 32 32 32h128c17.673 0 32-14.327 32-32s-14.327-32-32-32h-128c-17.673 0-32 14.327-32 32zM96 533.333c0 17.673 14.327 32 32 32h128c17.673 0 32-14.327 32-32s-14.327-32-32-32h-128c-17.673 0-32 14.327-32 32zM96 362.667c0 17.673 14.327 32 32 32h128c17.673 0 32-14.327 32-32s-14.327-32-32-32h-128c-17.673 0-32 14.327-32 32zM608 405.333c0 17.673 14.327 32 32 32h85.333c17.673 0 32-14.327 32-32s-14.327-32-32-32h-85.333c-17.673 0-32 14.327-32 32zM608 277.333c0 17.673 14.327 32 32 32h85.333c17.673 0 32-14.327 32-32s-14.327-32-32-32h-85.333c-17.673 0-32 14.327-32 32zM682.667 181.333c17.673 0 32-14.327 32-32v-128c0-17.673-14.327-32-32-32s-32 14.327-32 32v128c0 17.673 14.327 32 32 32z" />
<glyph unicode="&#xe919;" glyph-name="calendar" d="M256 896c11.782 0 21.333-9.551 21.333-21.333v-27.551c49.831 6.218 112.788 6.218 192.354 6.217h84.625c79.565 0 142.524 0 192.354-6.217v27.551c0 11.782 9.553 21.333 21.333 21.333s21.333-9.551 21.333-21.333v-35.276c36.442-9.131 66.031-24.49 90.24-50.659 31.027-33.547 45.316-76.331 52.254-132.106 6.839-55.011 6.839-125.809 6.839-217.452v-25.011c0-91.644 0-162.441-6.839-217.455-6.938-55.774-21.227-98.556-52.254-132.105-31.253-33.783-71.475-49.553-123.827-57.161-51.204-7.441-116.958-7.441-201.434-7.441h-84.625c-84.477 0-150.231 0-201.431 7.441-52.355 7.607-92.576 23.377-123.826 57.161-31.031 33.549-45.319 76.331-52.256 132.105-6.842 55.014-6.842 125.811-6.841 217.455v25.011c0 91.644 0 162.441 6.841 217.452 6.936 55.775 21.224 98.559 52.255 132.106 24.206 26.169 53.795 41.528 90.237 50.659v35.276c0 11.782 9.551 21.333 21.333 21.333zM234.667 795.137c-25.214-7.698-43.77-19.005-58.915-35.378-22.393-24.208-34.817-56.78-41.236-108.399-0.46-3.704-0.889-7.489-1.286-11.359h757.545c-0.401 3.87-0.828 7.655-1.289 11.359-6.417 51.619-18.842 84.191-41.237 108.399-15.142 16.374-33.698 27.68-58.914 35.378v-5.804c0-11.782-9.553-21.333-21.333-21.333s-21.333 9.551-21.333 21.333v14.752c-47.407 6.531-109.265 6.581-194.133 6.581h-81.067c-84.869 0-146.729-0.051-194.133-6.581v-14.752c0-11.782-9.551-21.333-21.333-21.333s-21.333 9.551-21.333 21.333v5.804zM130.124 597.333c-2.106-43.29-2.124-95.526-2.124-159.71v-21.914c0-93.517 0.039-161.664 6.515-213.734 6.42-51.622 18.844-84.194 41.237-108.403 22.173-23.97 51.656-37.077 98.641-43.908 47.781-6.946 110.439-6.997 197.074-6.997h81.067c86.635 0 149.295 0.051 197.073 6.997 46.989 6.831 76.471 19.938 98.641 43.908 22.396 24.209 34.82 56.781 41.237 108.403 6.477 52.070 6.515 120.222 6.515 213.734v21.914c0 64.183-0.017 116.42-2.125 159.71h-763.751zM320 405.333c0 11.78 9.551 21.333 21.333 21.333h0.383c11.782 0 21.333-9.553 21.333-21.333s-9.551-21.333-21.333-21.333h-0.383c-11.782 0-21.333 9.553-21.333 21.333zM490.475 405.333c0 11.78 9.553 21.333 21.333 21.333h0.384c11.78 0 21.333-9.553 21.333-21.333s-9.553-21.333-21.333-21.333h-0.384c-11.78 0-21.333 9.553-21.333 21.333zM660.949 405.333c0 11.78 9.553 21.333 21.333 21.333h0.384c11.78 0 21.333-9.553 21.333-21.333s-9.553-21.333-21.333-21.333h-0.384c-11.78 0-21.333 9.553-21.333 21.333zM320 234.667c0 11.78 9.551 21.333 21.333 21.333h0.383c11.782 0 21.333-9.553 21.333-21.333s-9.551-21.333-21.333-21.333h-0.383c-11.782 0-21.333 9.553-21.333 21.333zM490.475 234.667c0 11.78 9.553 21.333 21.333 21.333h0.384c11.78 0 21.333-9.553 21.333-21.333s-9.553-21.333-21.333-21.333h-0.384c-11.78 0-21.333 9.553-21.333 21.333z" />
<glyph unicode="&#xe91a;" glyph-name="call-incoming" d="M213.916 842.441c-2.667 0.551-8.059 0.512-15.783-5.783-58.828-47.947-91.918-121.004-77.32-193.368 8.827-43.758 22.211-87.043 46.732-136.811l78.591 90.276c20.387 23.418 33.908 39.020 42.973 52.147 8.605 12.46 11.293 20.084 12 26.861s-0.351 14.793-6.2 28.76c-6.162 14.714-16.172 32.769-31.29 59.89l-37.256 66.838c-4.539 8.143-9.53 10.586-12.449 11.19zM200.504 446.869c75.385-123.563 186.7-234.927 310.386-310.387l109.18 95.049c21.747 18.935 40.047 34.867 56.482 46.221 17.434 12.041 35.29 20.77 56.597 22.993 21.303 2.219 40.572-2.641 60.117-10.825 18.423-7.714 39.616-19.529 64.802-33.57l1.527-0.849 66.837-37.257c21.461-11.964 37.709-31.219 42.705-55.398 5.047-24.431-2.402-48.986-18.85-69.167-59.686-73.233-155.315-119.863-255.633-99.627-61.666 12.437-122.505 33.165-196.096 75.366-147.852 84.796-280.421 217.438-365.118 365.12-42.202 73.587-62.926 134.431-75.365 196.096-20.237 100.319 26.391 195.947 99.622 255.633 20.183 16.45 44.74 23.898 69.171 18.848 24.179-4.998 43.434-21.242 55.397-42.705l38.11-68.371c14.038-25.182 25.851-46.374 33.566-64.796 8.183-19.542 13.044-38.813 10.822-60.118zM200.504 446.869v0zM570.505 103.522l90.274 78.592c23.415 20.39 39.019 33.911 52.143 42.974 12.463 8.606 20.087 11.294 26.863 11.998 6.775 0.708 14.793-0.35 28.762-6.199 14.711-6.161 32.768-16.171 59.891-31.287 0 0 0 0 0 0l66.837-37.257c8.141-4.54 10.586-9.532 11.187-12.45 0.55-2.667 0.512-8.055-5.781-15.778-47.945-58.829-121.007-91.921-193.37-77.325-43.759 8.828-87.040 22.212-136.806 46.733zM875.959 811.961c12.497-12.497 12.497-32.758 0-45.255l-242.893-242.892c0.725 0.055 1.455 0.115 2.189 0.175 14.161 1.169 28.621 2.91 42.125 4.535 1.045 0.128 2.086 0.252 3.119 0.375 13.47 1.621 27.571 3.302 37.338 3.443 17.673 0.256 32.205-13.867 32.457-31.539 0.252-17.668-13.867-32.201-31.539-32.452-5.585-0.081-15.71-1.203-30.618-2.991-1.075-0.132-2.172-0.265-3.281-0.397-13.312-1.604-28.915-3.486-44.331-4.757-16.516-1.365-34.249-2.167-49.903-0.913-7.842 0.627-16.154 1.843-24.004 4.22-7.578 2.295-17.054 6.362-24.9 14.208s-11.913 17.323-14.204 24.896c-2.381 7.851-3.593 16.162-4.224 24.009-1.25 15.651-0.448 33.386 0.917 49.902 1.271 15.414 3.153 31.020 4.757 44.333 0.132 1.109 0.265 2.202 0.393 3.278 1.792 14.906 2.914 25.030 2.991 30.616 0.256 17.671 14.784 31.792 32.457 31.539s31.791-14.783 31.539-32.454c-0.141-9.767-1.826-23.868-3.443-37.336-0.124-1.033-0.247-2.071-0.375-3.116-1.626-13.507-3.366-27.968-4.535-42.128-0.064-0.734-0.119-1.464-0.179-2.19l242.893 242.893c12.497 12.497 32.759 12.497 45.257 0z" />
<glyph unicode="&#xe91b;" glyph-name="call-outgoing" d="M213.916 842.441c-2.667 0.551-8.059 0.512-15.783-5.783-58.828-47.947-91.918-121.004-77.32-193.368 8.827-43.758 22.211-87.043 46.732-136.811l78.591 90.276c20.387 23.418 33.908 39.020 42.973 52.147 8.605 12.46 11.293 20.084 12 26.861s-0.351 14.793-6.2 28.76c-6.162 14.714-16.172 32.769-31.29 59.89l-37.256 66.838c-4.539 8.143-9.53 10.586-12.449 11.19zM200.504 446.869c75.385-123.563 186.7-234.927 310.386-310.387l109.18 95.049c21.747 18.935 40.047 34.867 56.482 46.221 17.434 12.041 35.29 20.77 56.597 22.993 21.303 2.219 40.572-2.641 60.117-10.825 18.423-7.714 39.616-19.529 64.802-33.57l1.527-0.849 66.837-37.257c21.461-11.964 37.709-31.219 42.705-55.398 5.047-24.431-2.402-48.986-18.85-69.167-59.686-73.233-155.315-119.863-255.633-99.627-61.666 12.437-122.505 33.165-196.096 75.366-147.852 84.796-280.421 217.438-365.118 365.12-42.202 73.587-62.926 134.431-75.365 196.096-20.237 100.319 26.391 195.947 99.622 255.633 20.183 16.45 44.74 23.898 69.171 18.848 24.179-4.998 43.434-21.242 55.397-42.705l38.11-68.371c14.038-25.182 25.851-46.374 33.566-64.796 8.183-19.542 13.044-38.813 10.822-60.118zM200.504 446.869v0zM570.505 103.522l90.274 78.592c23.415 20.39 39.019 33.911 52.143 42.974 12.463 8.606 20.087 11.294 26.863 11.998 6.775 0.708 14.793-0.35 28.762-6.199 14.711-6.161 32.768-16.171 59.891-31.287 0 0 0 0 0 0l66.837-37.257c8.141-4.54 10.586-9.532 11.187-12.45 0.55-2.667 0.512-8.055-5.781-15.778-47.945-58.829-121.007-91.921-193.37-77.325-43.759 8.828-87.040 22.212-136.806 46.733zM841.382 816.488c7.573-2.294 17.050-6.36 24.896-14.207v0c7.846-7.846 11.913-17.323 14.208-24.899 2.377-7.852 3.593-16.163 4.22-24.006 1.254-15.652 0.452-33.387-0.913-49.903-1.271-15.414-3.153-31.020-4.757-44.333-0.132-1.109-0.265-2.202-0.397-3.278-1.788-14.907-2.91-25.031-2.991-30.616-0.252-17.671-14.784-31.792-32.452-31.539-17.673 0.253-31.795 14.783-31.539 32.454 0.141 9.767 1.822 23.868 3.443 37.337 0.124 1.033 0.247 2.071 0.371 3.116 1.63 13.507 3.371 27.968 4.54 42.128 0.060 0.734 0.119 1.465 0.175 2.191l-242.893-242.893c-12.497-12.497-32.755-12.497-45.252 0s-12.497 32.755 0 45.252l242.889 242.894c-0.721-0.057-1.451-0.116-2.185-0.176-14.157-1.169-28.608-2.91-42.112-4.535-1.050-0.127-2.095-0.253-3.136-0.377-13.47-1.618-27.571-3.302-37.342-3.441-17.668-0.251-32.196 13.871-32.448 31.542s13.871 32.2 31.543 32.451c5.581 0.079 15.706 1.199 30.613 2.991 1.079 0.13 2.18 0.262 3.294 0.396 13.308 1.603 28.907 3.483 44.314 4.756 16.516 1.364 34.253 2.168 49.903 0.915 7.846-0.628 16.154-1.843 24.009-4.22z" />
<glyph unicode="&#xe91c;" glyph-name="call" d="M213.916 842.441c-2.667 0.551-8.059 0.512-15.783-5.783-58.828-47.947-91.918-121.004-77.32-193.368 8.827-43.758 22.211-87.043 46.732-136.811l78.591 90.276c20.387 23.418 33.908 39.020 42.973 52.147 8.605 12.46 11.293 20.084 12 26.861s-0.351 14.793-6.2 28.76c-6.162 14.714-16.172 32.769-31.29 59.89l-37.256 66.838c-4.539 8.143-9.53 10.586-12.449 11.19zM200.504 446.869c75.385-123.563 186.7-234.927 310.386-310.387l109.18 95.049c21.747 18.935 40.047 34.867 56.482 46.221 17.434 12.041 35.29 20.77 56.597 22.993 21.303 2.219 40.572-2.641 60.117-10.825 18.423-7.714 39.616-19.529 64.802-33.57l1.527-0.849 66.837-37.257c21.461-11.964 37.709-31.219 42.705-55.398 5.047-24.431-2.402-48.986-18.85-69.167-59.686-73.233-155.315-119.863-255.633-99.627-61.666 12.437-122.505 33.165-196.096 75.366-147.852 84.796-280.421 217.438-365.118 365.12-42.202 73.587-62.926 134.431-75.365 196.096-20.237 100.319 26.391 195.947 99.622 255.633 20.183 16.45 44.74 23.898 69.171 18.848 24.179-4.998 43.434-21.242 55.397-42.705l38.11-68.371c14.038-25.182 25.851-46.374 33.566-64.796 8.183-19.542 13.044-38.813 10.822-60.118zM200.504 446.869v0zM570.505 103.522l90.274 78.592c23.415 20.39 39.019 33.911 52.143 42.974 12.463 8.606 20.087 11.294 26.863 11.998 6.775 0.708 14.793-0.35 28.762-6.199 14.711-6.161 32.768-16.171 59.891-31.287 0 0 0 0 0 0l66.837-37.257c8.141-4.54 10.586-9.532 11.187-12.45 0.55-2.667 0.512-8.055-5.781-15.778-47.945-58.829-121.007-91.921-193.37-77.325-43.759 8.828-87.040 22.212-136.806 46.733z" />
<glyph unicode="&#xe91d;" glyph-name="camera" d="M512 216.913c51.537 0 95.223 18.022 131.063 54.076 35.84 36.049 53.76 79.996 53.76 131.836s-17.92 95.782-53.76 131.835c-35.84 36.051-79.526 54.076-131.063 54.076s-95.225-18.025-131.065-54.076c-35.84-36.053-53.76-79.995-53.76-131.835s17.92-95.787 53.76-131.836c35.84-36.053 79.528-54.076 131.065-54.076zM512 284.663c-33.169 0-61.035 11.354-83.605 34.065-22.575 22.699-33.863 50.731-33.863 84.096 0 33.361 11.288 61.393 33.863 84.096 22.571 22.707 50.436 34.061 83.605 34.061s61.035-11.354 83.605-34.061c22.575-22.703 33.865-50.735 33.865-84.096 0-33.365-11.29-61.397-33.865-84.096-22.571-22.711-50.436-34.065-83.605-34.065zM166.523 64c-22.688 0-41.892 7.906-57.611 23.718s-23.579 35.127-23.579 57.95v514.311c0 22.822 7.86 42.138 23.579 57.95s34.923 23.718 57.611 23.718h118.422c11.936 0 23.327 5 31.406 13.786l57.733 62.781c8.079 8.786 19.47 13.786 31.406 13.786h213.018c11.938 0 23.326-5 31.407-13.786l57.732-62.781c8.081-8.786 19.469-13.786 31.407-13.786h118.421c22.69 0 41.89-7.906 57.613-23.718 15.718-15.812 23.578-35.128 23.578-57.95v-514.311c0-22.822-7.859-42.138-23.578-57.95-15.723-15.812-34.923-23.718-57.613-23.718h-690.953zM166.523 131.763h690.953c4.036 0 7.347 1.306 9.937 3.908 2.59 2.607 3.887 5.939 3.887 9.997v514.311c0 4.058-1.297 7.39-3.887 9.996s-5.901 3.908-9.937 3.908h-148.373c-11.998 0-23.441 5.051-31.526 13.915l-57.020 62.522c-8.085 8.864-19.529 13.915-31.526 13.915h-154.061c-11.998 0-23.441-5.051-31.526-13.915l-57.021-62.522c-8.084-8.864-19.527-13.915-31.525-13.915h-148.375c-4.035 0-7.347-1.303-9.937-3.908s-3.885-5.937-3.885-9.996v-514.311c0-4.058 1.295-7.39 3.885-9.997 2.59-2.603 5.902-3.908 9.937-3.908z" />
<glyph unicode="&#xe91e;" glyph-name="cancel" d="M276.039 683.961c12.497 12.497 32.758 12.497 45.255 0l190.706-190.704 190.707 190.704c12.497 12.497 32.755 12.497 45.252 0s12.497-32.758 0-45.255l-190.703-190.706 190.703-190.707c12.497-12.497 12.497-32.755 0-45.252s-32.755-12.497-45.252 0l-190.707 190.703-190.706-190.703c-12.497-12.497-32.758-12.497-45.255 0s-12.497 32.755 0 45.252l190.704 190.707-190.704 190.706c-12.497 12.497-12.497 32.758 0 45.255z" />
<glyph unicode="&#xe91f;" glyph-name="car-01" d="M468.412 874.288c-35.093-3.337-77.037-16.518-108.023-34.204-50.844-28.864-80.461-77.917-80.461-133.311 0-10.511 4.623-73.079 10.443-138.983l10.272-119.795-3.424-40.38c-2.054-22.025-3.766-40.375-3.937-40.542s-14.551 5.171-32.013 12.011c-17.462 6.677-33.041 12.348-34.581 12.348s-5.136-2.001-8.046-4.339l-5.307-4.335v-25.028c0-14.848 0.856-27.861 2.054-31.868 1.198-3.669 5.649-10.342 9.929-14.848 6.848-7.343 10.443-9.344 34.239-18.688l26.535-10.513-0.343-5.67c-0.342-3.17-1.712-19.857-3.252-37.376-1.712-19.187-2.397-38.874-1.883-50.052 2.568-48.887 29.788-94.601 72.244-121.463 11.641-7.177 64.54-30.366 85.595-37.542 38.349-12.681 76.698-11.012 118.298 5.338 56.149 22.025 75.665 32.371 95.351 50.889 20.885 19.524 34.927 42.381 43.315 69.743 5.99 20.19 7.019 43.213 3.422 83.089-1.54 17.519-2.91 34.206-3.251 37.376l-0.341 5.67 26.534 10.513c23.795 9.344 27.388 11.345 34.236 18.688 4.279 4.506 8.734 11.179 9.933 14.848 1.195 4.006 2.052 17.020 2.052 31.868v25.028l-5.308 4.335c-2.91 2.338-6.507 4.339-8.218 4.339-1.54 0-17.118-5.504-34.411-12.348-17.459-6.839-31.842-12.177-32.013-12.011s-1.882 18.351-3.934 40.542l-3.426 40.213 10.27 120.628c5.824 66.405 10.445 129.14 10.445 139.15-0.171 45.716-21.743 89.097-58.377 117.794-26.534 20.689-68.305 38.375-107.853 45.716-14.549 2.669-52.727 4.338-66.765 3.17zM527.817 843.421c20.544-3.337 40.23-9.844 64.708-21.523 19.861-9.51 26.193-13.515 37.321-23.526 19.174-17.185 29.103-32.368 37.491-57.395 6.677-19.855 5.995-37.708-5.478-170.517l-10.441-122.132 10.27-120.798c5.824-66.573 10.445-125.47 10.445-130.974 0-45.717-28.762-90.931-71.044-111.62-17.293-8.678-66.94-28.531-78.238-31.701-14.895-3.84-49.472-3.84-64.367 0-11.298 3.17-60.946 23.023-78.236 31.701-40.573 19.853-67.279 59.729-70.361 104.947-0.685 9.677 2.225 50.889 9.587 136.145l10.443 122.3-10.443 122.132c-11.47 132.81-12.154 150.662-5.478 170.517 8.388 25.027 18.318 40.21 37.491 57.395 22.255 20.022 68.477 40.21 103.229 45.049 7.019 1.001 15.236 2.169 17.975 2.503 8.218 1.168 42.458-0.334 55.125-2.503zM285.235 326.195v-13.18l-8.56 3.337c-4.623 1.835-12.669 4.838-17.462 6.673-13.524 5.171-16.777 9.51-16.777 22.524v10.513l42.799-16.687v-13.18zM735.817 331.537c-2.91-3.84-7.019-5.841-31.501-15.351l-8.218-3.17v26.359l21.056 8.179 20.885 8.175 0.516-10.014c0.341-7.671-0.171-10.842-2.739-14.178zM459.469 762.666c-24.482-4.005-46.051-12.347-79.262-30.366-21.228-11.679-28.589-19.855-31.5-34.871-1.37-6.674-0.342-15.85 5.478-50.221l7.019-42.212h258.845l7.019 42.212c5.82 34.371 6.848 43.547 5.478 50.221-3.426 18.353-13.184 26.529-56.324 47.718-35.093 17.352-78.575 23.859-116.753 17.519zM517.163 734.302c7.531-1.335 18.658-4.005 24.823-5.84 11.981-3.671 46.903-21.023 56.149-27.863 6.848-5.005 7.019-9.010 1.199-42.212-2.398-13.348-4.279-24.36-4.279-24.527 0-0.334-46.908-0.5-104.427-0.5-57.353 0-104.43 0.167-104.43 0.5 0 0.167-1.883 11.179-4.28 24.527-5.821 33.202-5.649 37.207 1.37 42.212 9.416 7.174 44.338 24.193 56.835 28.030 26.534 8.175 52.557 10.178 77.039 5.673zM360.548 433.481c0-0.666-3.081-31.036-7.019-67.238-7.703-72.081-7.875-83.759-1.37-94.938 10.614-18.351 58.72-42.044 99.975-49.22 20.203-3.503 56.836-3.503 77.039 0 29.786 5.171 64.026 19.187 86.281 35.038 13.013 9.344 19.004 20.523 19.004 34.871 0 5.675-3.081 39.876-6.848 76.083s-6.848 66.069-6.848 66.406c0 0.998-260.214 0.166-260.214-1.003zM593.886 405.282c0.512-0.832 3.422-26.697 6.502-57.562 4.109-40.542 5.308-57.562 4.109-60.898s-5.649-7.010-15.066-12.514c-56.661-33.203-124.284-35.703-183.86-7.006-23.111 11.012-29.617 16.35-29.617 24.358 0 6.507 10.272 109.619 11.127 112.789 0.685 1.502 22.769 2.001 103.401 2.001 56.495 0 103.057-0.499 103.403-1.169zM357.697 205.564l-10.614-7.006 29.274-42.714 29.103-42.88 11.812 7.676c6.505 4.173 11.813 8.009 11.813 8.175 0 2.338-57.351 84.092-58.892 83.925-1.027 0-6.676-3.17-12.497-7.177zM580.838 171.196c-15.748-22.857-28.587-42.044-28.587-42.547 0-0.666 15.748-11.345 21.739-14.848 1.37-0.67 11.814 13.013 31.33 41.378l29.103 42.547-10.274 6.839c-5.649 3.669-11.298 7.172-12.497 7.676-1.54 0.499-11.981-13.517-30.814-41.045z" />
<glyph unicode="&#xe920;" glyph-name="car-02" d="M223.56 197.687v-42.88c0-13.376-4.649-24.742-13.949-34.099-9.299-9.361-20.593-14.042-33.882-14.042-13.282 0-24.557 4.681-33.826 14.042-9.268 9.357-13.903 20.723-13.903 34.099v321.024c0 4.723 0.305 9.451 0.915 14.174 0.61 4.727 1.634 9.254 3.072 13.585l80.9 230.424c5.414 16.391 15.224 29.707 29.432 39.947 14.208 10.248 30.11 15.372 47.706 15.372h443.948c17.596 0 33.498-5.124 47.706-15.372 14.208-10.24 24.021-23.556 29.436-39.947l80.9-230.424c1.438-4.331 2.462-8.858 3.072-13.585 0.61-4.723 0.913-9.451 0.913-14.174v-321.024c0-13.376-4.651-24.742-13.948-34.099-9.306-9.361-20.599-14.042-33.882-14.042-13.291 0-24.572 4.681-33.839 14.042-9.259 9.357-13.892 20.723-13.892 34.099v42.88h-576.88zM223.221 558.273h577.56l-53.513 153.6c-1.161 2.921-2.901 5.181-5.218 6.781-2.321 1.608-5.073 2.412-8.256 2.412h-443.588c-3.185 0-5.937-0.804-8.256-2.412-2.319-1.6-4.058-3.861-5.218-6.781l-53.511-153.6zM307.068 318.464c16.437 0 30.377 5.798 41.822 17.395 11.437 11.593 17.156 25.664 17.156 42.223s-5.753 30.605-17.257 42.133c-11.513 11.52-25.487 17.284-41.924 17.284s-30.374-5.798-41.811-17.387c-11.445-11.597-17.167-25.677-17.167-42.236s5.756-30.596 17.269-42.121c11.505-11.529 25.476-17.293 41.912-17.293zM717.137 318.464c16.435 0 30.37 5.798 41.809 17.395 11.443 11.593 17.165 25.664 17.165 42.223s-5.756 30.605-17.267 42.133c-11.503 11.52-25.476 17.284-41.911 17.284s-30.379-5.798-41.822-17.387c-11.439-11.597-17.156-25.677-17.156-42.236s5.751-30.596 17.259-42.121c11.511-11.529 25.485-17.293 41.924-17.293zM195.765 265.954h632.472v224.051h-632.472v-224.051z" />
<glyph unicode="&#xe921;" glyph-name="center-focus" d="M209.668 64c-22.822 0-42.138 7.906-57.95 23.718s-23.718 35.127-23.718 57.95v132.919c0 9.617 3.245 17.664 9.736 24.149 6.483 6.49 14.531 9.732 24.147 9.732s17.664-3.243 24.147-9.732c6.49-6.485 9.736-14.532 9.736-24.149v-132.919c0-3.477 1.449-6.665 4.348-9.557 2.891-2.897 6.076-4.348 9.555-4.348h132.92c9.615 0 17.664-3.243 24.147-9.732 6.49-6.485 9.736-14.532 9.736-24.149 0-9.613-3.245-17.664-9.736-24.145-6.483-6.49-14.532-9.737-24.147-9.737h-132.92zM814.332 64h-132.919c-9.617 0-17.664 3.247-24.149 9.737-6.49 6.481-9.732 14.532-9.732 24.145 0 9.617 3.243 17.664 9.732 24.149 6.485 6.49 14.532 9.732 24.149 9.732h132.919c3.477 0 6.665 1.451 9.557 4.348 2.897 2.893 4.348 6.080 4.348 9.557v132.919c0 9.617 3.243 17.664 9.732 24.149 6.485 6.49 14.532 9.732 24.149 9.732 9.613 0 17.664-3.243 24.145-9.732 6.49-6.485 9.737-14.532 9.737-24.149v-132.919c0-22.822-7.906-42.138-23.718-57.95s-35.127-23.718-57.95-23.718zM128 617.412v132.92c0 22.822 7.906 42.138 23.718 57.95s35.129 23.718 57.95 23.718h132.92c9.615 0 17.664-3.245 24.147-9.736 6.49-6.483 9.736-14.531 9.736-24.147s-3.245-17.664-9.736-24.147c-6.483-6.49-14.532-9.736-24.147-9.736h-132.92c-3.479 0-6.664-1.449-9.555-4.348-2.899-2.891-4.348-6.076-4.348-9.555v-132.92c0-9.615-3.245-17.664-9.736-24.147-6.483-6.49-14.532-9.736-24.147-9.736s-17.664 3.245-24.147 9.736c-6.49 6.483-9.736 14.532-9.736 24.147zM828.237 617.412v132.92c0 3.479-1.451 6.664-4.348 9.555-2.893 2.899-6.080 4.348-9.557 4.348h-132.919c-9.617 0-17.664 3.245-24.149 9.736-6.49 6.483-9.732 14.532-9.732 24.147s3.243 17.664 9.732 24.147c6.485 6.49 14.532 9.736 24.149 9.736h132.919c22.822 0 42.138-7.906 57.95-23.718s23.718-35.129 23.718-57.95v-132.92c0-9.615-3.247-17.664-9.737-24.147-6.481-6.49-14.532-9.736-24.145-9.736-9.617 0-17.664 3.245-24.149 9.736-6.49 6.483-9.732 14.532-9.732 24.147zM512 244.706c-56.41 0-104.395 19.78-143.955 59.341-39.56 39.556-59.34 87.543-59.34 143.953s19.78 104.395 59.34 143.955c39.56 39.56 87.545 59.34 143.955 59.34s104.397-19.78 143.953-59.34c39.561-39.56 59.341-87.545 59.341-143.955s-19.78-104.397-59.341-143.953c-39.556-39.561-87.543-59.341-143.953-59.341zM512 312.469c37.649 0 69.649 13.18 96 39.531s39.531 58.351 39.531 96c0 37.649-13.18 69.649-39.531 96-26.351 26.353-58.351 39.529-96 39.529s-69.649-13.176-96-39.529c-26.353-26.351-39.529-58.351-39.529-96s13.176-69.649 39.529-96c26.351-26.351 58.351-39.531 96-39.531z" />
<glyph unicode="&#xe922;" glyph-name="checkmark-badge" d="M485.299 434.743c-8.35-8.708-22.246-8.768-30.669-0.137l-42.552 43.614c-7.328 7.642-16.487 11.465-27.479 11.465s-20.484-4.169-28.478-12.506c-7.328-7.642-10.991-17.37-10.991-29.18s3.664-21.538 10.991-29.18l85.935-89.621c7.991-8.337 17.318-12.506 27.977-12.506s19.985 4.169 27.977 12.506l169.869 177.161c7.991 8.337 11.823 18.061 11.49 29.177s-4.164 20.842-11.49 29.179c-7.996 8.337-17.485 12.679-28.48 13.026-10.991 0.348-20.48-3.647-28.476-11.984l-125.623-131.014zM358.12 41.579l-53.31 93.943c-2.959 5.214-7.975 8.943-13.821 10.27l-100.738 22.925c-9.993 2.082-17.986 7.467-23.981 16.154-5.996 8.683-8.327 18.236-6.995 28.655l10.165 108.911c0.529 5.662-1.226 11.302-4.875 15.667l-69.24 82.803c-6.662 7.642-9.992 16.674-9.992 27.093s3.331 19.452 9.992 27.093l69.24 82.804c3.649 4.364 5.404 10.004 4.875 15.668l-10.165 108.908c-1.332 10.421 0.999 19.974 6.995 28.658s13.989 14.068 23.981 16.153l100.738 22.922c5.846 1.33 10.862 5.059 13.821 10.273l53.31 93.941c5.329 9.032 12.657 15.11 21.983 18.237s18.652 2.605 27.978-1.563l95.309-42.053c5.483-2.42 11.738-2.42 17.22 0l95.309 42.053c9.327 4.169 18.654 4.689 27.977 1.563 9.327-3.127 16.657-9.205 21.986-18.237l53.308-93.941c2.961-5.214 7.974-8.943 13.82-10.273l100.74-22.922c9.993-2.084 17.984-7.468 23.979-16.153 5.999-8.684 8.329-18.237 6.997-28.658l-10.167-108.908c-0.529-5.664 1.229-11.304 4.877-15.668l69.239-82.804c6.66-7.642 9.993-16.674 9.993-27.093s-3.332-19.452-9.993-27.093l-69.239-82.803c-3.648-4.365-5.406-10.005-4.877-15.667l10.167-108.911c1.331-10.419-0.998-19.972-6.997-28.655-5.995-8.687-13.986-14.071-23.979-16.154l-100.74-22.925c-5.845-1.327-10.859-5.056-13.82-10.27l-53.308-93.943c-5.329-9.028-12.659-15.108-21.986-18.236-9.323-3.127-18.65-2.607-27.977 1.562l-95.309 42.052c-5.483 2.423-11.738 2.423-17.22 0l-95.309-42.052c-9.326-4.169-18.652-4.689-27.978-1.562s-16.654 9.207-21.983 18.236zM400.428 133.274c5.483-9.468 17.237-13.248 27.212-8.764l75.691 34.052c5.521 2.483 11.831 2.509 17.365 0.064l77.466-34.18c10.069-4.442 21.862-0.499 27.23 9.105l41.963 75.021c2.884 5.154 7.778 8.883 13.513 10.3l83.217 20.51c10.197 2.517 17.045 12.075 16.149 22.537l-7.68 89.724c-0.482 5.649 1.301 11.255 4.958 15.586l56.738 67.166c6.652 7.881 6.72 19.388 0.158 27.345l-57.067 69.163c-3.554 4.308-5.278 9.835-4.8 15.398l7.667 89.536c0.905 10.607-6.144 20.259-16.525 22.621l-82.739 18.828c-5.781 1.316-10.756 4.977-13.73 10.108l-43.639 75.335c-5.483 9.465-17.237 13.249-27.213 8.762l-75.691-34.053c-5.521-2.482-11.831-2.505-17.365-0.062l-77.467 34.181c-10.066 4.442-21.859 0.499-27.231-9.104l-41.85-74.821c-2.949-5.272-7.995-9.047-13.885-10.388l-82.555-18.785c-10.38-2.362-17.43-12.015-16.522-22.621l7.665-89.536c0.477-5.562-1.247-11.090-4.8-15.398l-57.065-69.163c-6.563-7.957-6.496-19.465 0.158-27.345l56.748-67.179c3.651-4.322 5.435-9.92 4.961-15.556l-7.697-91.52c-0.891-10.594 6.156-20.228 16.525-22.588l82.769-18.833c5.781-1.318 10.754-4.979 13.726-10.108l43.642-75.337z" />
<glyph unicode="&#xe923;" glyph-name="checkmark-circle" d="M53.333 448c0 253.315 205.352 458.667 458.667 458.667 47.885 0 94.118-7.348 137.587-21.004 16.862-5.296 26.24-23.258 20.941-40.119-5.295-16.861-23.258-26.236-40.115-20.94-37.342 11.727-77.107 18.062-118.413 18.062-217.969 0-394.667-176.698-394.667-394.667 0-217.967 176.698-394.667 394.667-394.667 217.967 0 394.667 176.7 394.667 394.667 0 41.306-6.336 81.071-18.061 118.413-5.295 16.861 4.079 34.822 20.941 40.117s34.82-4.081 40.115-20.943c13.653-43.472 21.005-89.702 21.005-137.587 0-253.312-205.355-458.667-458.667-458.667-253.315 0-458.667 205.355-458.667 458.667zM917.414 855.785c13.137-11.823 14.204-32.056 2.381-45.193l-384.009-426.665c-5.875-6.528-14.17-10.351-22.946-10.581-8.777-0.235-17.259 3.153-23.467 9.361l-149.335 149.333c-12.497 12.495-12.497 32.756 0 45.253s32.758 12.497 45.255 0l125.486-125.484 361.442 401.597c11.823 13.136 32.060 14.201 45.193 2.378z" />
<glyph unicode="&#xe924;" glyph-name="checkmark-square-02" d="M361.412 21.333c-76.582 0-141.741 26.867-195.476 80.602s-80.602 118.895-80.602 195.477v301.176c0 76.582 26.868 141.741 80.602 195.476s118.894 80.602 195.476 80.602h301.176c76.582 0 141.743-26.868 195.477-80.602s80.602-118.894 80.602-195.476v-301.176c0-76.582-26.867-141.743-80.602-195.477s-118.895-80.602-195.477-80.602h-301.176zM461.803 370.385l-83.977 83.989c-6.952 6.946-15.69 10.5-26.215 10.667-10.516 0.158-19.413-3.396-26.692-10.667-7.27-7.279-10.905-16.094-10.905-26.453 0-10.355 3.635-19.174 10.905-26.453l105.123-105.122c9.079-9.071 19.665-13.602 31.761-13.602 12.1 0 22.686 4.531 31.761 13.602l225.596 225.591c6.942 6.955 10.5 15.692 10.667 26.217 0.158 10.516-3.396 19.413-10.667 26.692-7.279 7.27-16.098 10.905-26.453 10.905-10.359 0-19.174-3.635-26.453-10.905l-204.45-204.46zM361.412 96.627h301.176c55.215 0 102.485 19.661 141.803 58.982 39.322 39.317 58.982 86.588 58.982 141.803v301.176c0 55.216-19.661 102.484-58.982 141.804-39.317 39.32-86.588 58.98-141.803 58.98h-301.176c-55.216 0-102.484-19.66-141.804-58.98s-58.98-86.588-58.98-141.804v-301.176c0-55.215 19.66-102.485 58.98-141.803 39.32-39.322 86.588-58.982 141.804-58.982z" />
<glyph unicode="&#xe925;" glyph-name="city" d="M355.124 644.813c20.384 4.478 44.375 5.853 71.542 5.853h170.667c27.166 0 51.157-1.375 71.543-5.853 20.745-4.558 39.744-12.754 54.797-27.807s23.249-34.051 27.806-54.797c4.48-20.384 5.854-44.376 5.854-71.542v-469.333c0-17.673-14.327-32-32-32h-426.667c-17.673 0-32 14.327-32 32v469.333c0 27.166 1.375 51.158 5.853 71.542 4.558 20.746 12.754 39.744 27.807 54.797s34.051 23.249 54.797 27.807zM335.029 548.477c-2.975-13.544-4.363-32.026-4.363-57.81v-437.333h362.667v437.333c0 25.783-1.387 44.266-4.365 57.81-2.893 13.181-6.839 19.565-10.551 23.275-3.708 3.71-10.091 7.657-23.275 10.553-13.542 2.975-32.026 4.363-57.809 4.363h-170.667c-25.782 0-44.266-1.388-57.81-4.363-13.181-2.896-19.565-6.843-23.275-10.553s-7.657-10.093-10.553-23.275zM437.333 448c0 17.673 14.327 32 32 32h85.333c17.673 0 32-14.327 32-32s-14.327-32-32-32h-85.333c-17.673 0-32 14.327-32 32zM437.333 320c0 17.673 14.327 32 32 32h85.333c17.673 0 32-14.327 32-32s-14.327-32-32-32h-85.333c-17.673 0-32 14.327-32 32zM437.333 192c0 17.673 14.327 32 32 32h85.333c17.673 0 32-14.327 32-32s-14.327-32-32-32h-85.333c-17.673 0-32 14.327-32 32zM630.967 889.711c0 0 0 0 0 0l186.658-95.305c21.747-11.104 40.222-20.537 54.703-29.945 15.437-10.031 28.574-21.399 38.302-37.478 9.707-16.039 13.747-33.001 15.612-51.424 1.758-17.356 1.758-38.38 1.758-63.261v-590.965c0-17.673-14.327-32-32-32s-32 14.327-32 32v589.413c0 26.847-0.038 44.614-1.429 58.367-1.323 13.046-3.652 19.714-6.69 24.733-3.017 4.979-7.727 9.999-18.423 16.95-11.345 7.372-26.807 15.312-50.351 27.332 0 0 0.004 0 0 0l-185.246 94.583c-5.956 3.042-10.752 5.242-14.571 6.794-0.388-4.387-0.623-10.042-0.623-17.264v-190.924c0-17.673-14.327-32-32-32s-32 14.327-32 32v190.924c0 14.479 0.747 28.381 3.524 40.271 2.705 11.585 8.614 26.745 23.398 36.313 15.057 9.744 31.484 8.672 43.426 5.94 12.049-2.756 24.926-8.403 37.952-15.053zM577.114 842.675c-0.094 0.003-0.145 0.008-0.145 0.010l0.145-0.010zM160.355 415.646c-0.212-2.462-0.355-5.803-0.355-10.313v-384c0-17.673-14.327-32-32-32s-32 14.327-32 32v384c0 9.519 0.454 19.349 2.448 28.425 2.073 9.438 6.222 19.972 15.020 28.774 8.799 8.798 19.336 12.945 28.773 15.019 9.075 1.993 18.908 2.449 28.425 2.449h128c17.673 0 32-14.327 32-32s-14.327-32-32-32h-128c-4.511 0-7.85-0.145-10.312-0.354zM53.333 21.333c0 17.673 14.327 32 32 32h853.333c17.673 0 32-14.327 32-32s-14.327-32-32-32h-853.333c-17.673 0-32 14.327-32 32z" />
<glyph unicode="&#xe926;" glyph-name="clock" d="M512 842.667c-217.968 0-394.667-176.698-394.667-394.667 0-217.967 176.698-394.667 394.667-394.667 217.967 0 394.667 176.7 394.667 394.667 0 217.968-176.7 394.667-394.667 394.667zM53.333 448c0 253.315 205.352 458.667 458.667 458.667s458.667-205.352 458.667-458.667c0-253.316-205.35-458.667-458.667-458.667-253.315 0-458.667 205.35-458.667 458.667zM512 650.667c17.673 0 32-14.327 32-32v-157.41l75.959-75.964c12.497-12.497 12.497-32.755 0-45.252s-32.755-12.497-45.252 0l-85.333 85.333c-6.003 5.999-9.374 14.14-9.374 22.626v170.667c0 17.673 14.327 32 32 32z" />
<glyph unicode="&#xe927;" d="M455.817 581.591c53.999 16.615 126.656 26.409 205.517 26.409s151.518-9.793 205.517-26.409c26.803-8.247 50.825-18.721 68.847-31.832 17.323-12.601 34.97-32.166 34.97-59.092v-375.467c0-26.756-16.068-47.33-33.801-61.521-18.039-14.438-42.18-26.031-69.167-35.162-54.298-18.381-127.258-29.184-206.366-29.184s-152.068 10.803-206.366 29.184c-26.987 9.131-51.126 20.723-69.167 35.162-17.734 14.191-33.801 34.765-33.801 61.521v375.467c0 26.927 17.647 46.491 34.969 59.092 18.022 13.111 42.044 23.585 68.847 31.832zM416.635 490.667c1.022 1.417 3.258 3.9 7.983 7.339 10.044 7.309 26.637 15.223 50.022 22.417 46.374 14.268 112.384 23.578 186.692 23.578s140.318-9.309 186.692-23.578c23.386-7.194 39.979-15.108 50.022-22.417 4.723-3.439 6.963-5.922 7.983-7.339-1.020-1.417-3.26-3.9-7.983-7.339-10.044-7.309-26.637-15.223-50.022-22.417-46.37-14.268-112.384-23.578-186.692-23.578s-140.322 9.31-186.692 23.578c-23.386 7.194-39.979 15.108-50.022 22.417-4.725 3.439-6.961 5.922-7.984 7.339zM906.667 414.801c-12.169-5.687-25.604-10.684-39.817-15.061-54.003-16.614-126.656-26.406-205.517-26.406s-151.514 9.792-205.517 26.406c-14.212 4.378-27.648 9.374-39.817 15.061v-115.132c0.52-0.986 2.444-3.849 8.619-8.341 10.043-7.309 26.636-15.223 50.022-22.417 46.37-14.268 112.384-23.578 186.692-23.578s140.322 9.31 186.692 23.578c23.386 7.194 39.979 15.108 50.022 22.417 6.174 4.493 8.098 7.356 8.619 8.341v115.132zM906.667 222.801c-12.169-5.687-25.604-10.684-39.817-15.061-54.003-16.614-126.656-26.406-205.517-26.406s-151.514 9.792-205.517 26.406c-14.212 4.378-27.648 9.374-39.817 15.061v-107.601c0 0-0.006-0.107 0.082-0.401 0.095-0.316 0.337-0.969 0.937-1.958 1.257-2.082 3.851-5.257 8.769-9.19 10.027-8.026 26.501-16.661 49.699-24.512 46.080-15.595 111.787-25.805 185.847-25.805s139.767 10.21 185.847 25.805c23.198 7.851 39.671 16.486 49.698 24.512 4.919 3.934 7.514 7.108 8.768 9.19 0.602 0.99 0.845 1.643 0.939 1.958 0.034 0.111 0.051 0.196 0.064 0.256 0.021 0.102 0.017 0.145 0.017 0.145v107.601zM415.829 300.049c0.002 0 0.014-0.030 0.031-0.090l-0.031 0.090zM415.86 491.959c-0.024 0.060-0.033 0.090-0.031 0.090l0.031-0.090z" />
<glyph unicode="&#xe928;" d="M157.16 880.258c-26.804-8.247-50.826-18.721-68.849-31.832-17.322-12.602-34.97-32.167-34.97-59.093v-212.587c-0.012-0.491-0.012-0.983 0-1.475v-211.858c-0.012-0.491-0.012-0.981 0-1.476v-217.523l1.478-4.693c11.897-37.773 44.268-61.918 78.318-77.321 34.707-15.697 76.972-25.050 119.005-30.165 17.544-2.133 33.496 10.355 35.631 27.9s-10.356 33.498-27.901 35.631c-38.684 4.706-73.861 12.962-100.362 24.947-24.372 11.025-37.022 23.117-42.17 34.398v128.521c5.176-2.859 10.466-5.487 15.796-7.898 34.707-15.697 76.972-25.050 119.005-30.165 17.544-2.133 33.496 10.355 35.631 27.9s-10.356 33.498-27.901 35.631c-38.684 4.706-73.861 12.962-100.362 24.947-24.372 11.025-37.022 23.117-42.17 34.398v128.521c5.176-2.859 10.466-5.487 15.796-7.898 34.707-15.697 76.972-25.050 119.005-30.165 17.544-2.133 33.496 10.355 35.631 27.9s-10.356 33.498-27.901 35.631c-38.684 4.706-73.861 12.963-100.362 24.949-24.372 11.023-37.022 23.114-42.17 34.396v131.693c12.17-5.687 25.603-10.687 39.818-15.061 54-16.615 126.654-26.409 205.515-26.409s151.518 9.793 205.517 26.409c14.212 4.374 27.648 9.374 39.817 15.061v-9.47c0-17.673 14.327-32 32-32s32 14.327 32 32v85.333c0 26.926-17.647 46.491-34.97 59.092-18.022 13.111-42.044 23.585-68.847 31.832-53.999 16.615-126.656 26.409-205.517 26.409s-151.515-9.793-205.515-26.409zM117.977 789.333c1.023 1.418 3.259 3.901 7.984 7.338 10.045 7.308 26.638 15.222 50.021 22.417 46.375 14.269 112.388 23.578 186.694 23.578 74.308 0 140.318-9.309 186.692-23.578 23.386-7.195 39.979-15.109 50.022-22.416 4.723-3.437 6.959-5.921 7.983-7.339-1.024-1.418-3.26-3.901-7.983-7.339-10.044-7.307-26.637-15.221-50.022-22.416-46.374-14.269-112.384-23.578-186.692-23.578-74.306 0-140.319 9.309-186.694 23.578-23.383 7.195-39.976 15.109-50.021 22.417-4.725 3.437-6.961 5.92-7.984 7.338zM117.202 790.627c-0.024 0.060-0.033 0.090-0.031 0.090l0.031-0.090z" />
<glyph unicode="&#xe929;" glyph-name="content_copy" d="M320 149.333c-17.067 0-32 6.4-44.8 19.2s-19.2 27.733-19.2 44.8v597.333c0 17.067 6.4 32 19.2 44.8s27.733 19.2 44.8 19.2h469.333c17.067 0 32-6.4 44.8-19.2s19.2-27.733 19.2-44.8v-597.333c0-17.067-6.4-32-19.2-44.8s-27.733-19.2-44.8-19.2h-469.333zM320 256c0-23.565 19.103-42.667 42.667-42.667h384c23.565 0 42.667 19.102 42.667 42.667v512c0 23.564-19.102 42.667-42.667 42.667h-384c-23.564 0-42.667-19.103-42.667-42.667v-512zM192 21.333c-17.067 0-32 6.4-44.8 19.2s-19.2 27.733-19.2 44.8v629.333c0 17.673 14.327 32 32 32s32-14.327 32-32v-586.667c0-23.565 19.103-42.667 42.667-42.667h458.667c17.673 0 32-14.327 32-32s-14.327-32-32-32h-501.333z" />
<glyph unicode="&#xe92a;" glyph-name="conversation" d="M910.451 74.086c-3.759-5.85-10.001-9.173-18.726-9.963-8.73-0.794-16.567 2.266-23.501 9.173l-91.763 91.409h-447.82c-22.301 0-41.393 7.91-57.277 23.731-15.884 15.812-23.825 34.829-23.825 57.045v28.092h498.958c22.78 0 42.287 8.081 58.513 24.243 16.226 16.166 24.341 35.597 24.341 58.295v316.086h28.215c22.298 0 41.391-7.91 57.276-23.73s23.825-34.836 23.825-57.049v-488.533c0-8.427-2.825-15.33-8.469-20.719-5.636-5.389-12.22-8.081-19.746-8.081zM154.093 368.747l64.887 64.631h435.834c4.109 0 7.488 1.314 10.129 3.947 2.645 2.633 3.968 6.003 3.968 10.103v302.034c0 4.102-1.323 7.469-3.968 10.102-2.641 2.633-6.020 3.95-10.129 3.95h-486.613c-4.111 0-7.491-1.317-10.142-3.95-2.643-2.633-3.965-6-3.965-10.102v-380.716zM126.624 261.111c-10.658 0-20.204 3.861-28.638 11.584-8.435 7.731-12.652 17.924-12.652 30.579v446.188c0 22.7 8.113 42.131 24.341 58.293s35.736 24.244 58.526 24.244h486.613c22.784 0 42.287-8.081 58.513-24.244 16.23-16.163 24.341-35.594 24.341-58.293v-302.034c0-22.699-8.111-42.129-24.341-58.295-16.226-16.162-35.729-24.243-58.513-24.243h-407.276l-91.76-91.405c-4.294-4.271-8.893-7.403-13.798-9.395-4.913-1.984-10.031-2.978-15.357-2.978z" />
<glyph unicode="&#xe92b;" glyph-name="credit-card-pos" d="M840.205 149.333h-656.41c-26.114 0-51.158 9.438-69.623 26.244-18.465 16.802-28.839 39.59-28.839 63.356v418.133c0 23.763 10.374 46.554 28.839 63.357s43.509 26.243 69.623 26.243h656.41c26.112 0 51.157-9.44 69.623-26.243s28.838-39.593 28.838-63.357v-418.133c0-23.765-10.372-46.554-28.838-63.356-18.466-16.806-43.511-26.244-69.623-26.244zM183.795 686.933c-8.704 0-17.053-3.147-23.208-8.748s-9.613-13.198-9.613-21.119v-418.133c0-7.923 3.458-15.518 9.613-21.12s14.503-8.747 23.208-8.747h656.41c8.704 0 17.054 3.145 23.206 8.747 6.157 5.602 9.613 13.197 9.613 21.12v418.133c0 7.921-3.456 15.518-9.613 21.119-6.153 5.601-14.502 8.748-23.206 8.748h-656.41zM446.357 268.8h-196.922c-8.704 0-17.053 3.145-23.207 8.747s-9.613 13.197-9.613 21.12c0 7.923 3.458 15.518 9.613 21.12s14.503 8.747 23.207 8.747h196.922c8.708 0 17.054-3.145 23.211-8.747 6.153-5.602 9.613-13.197 9.613-21.12s-3.46-15.518-9.613-21.12c-6.157-5.602-14.502-8.747-23.211-8.747zM905.847 537.6h-787.694c-8.704 0-17.053 3.147-23.208 8.748s-9.613 13.198-9.613 21.119c0 7.921 3.458 15.518 9.613 21.119s14.503 8.748 23.208 8.748h787.694c8.704 0 17.050-3.147 23.206-8.748s9.613-13.198 9.613-21.119c0-7.921-3.456-15.518-9.613-21.119s-14.502-8.748-23.206-8.748z" />
<glyph unicode="&#xe92c;" glyph-name="dashboard-square-1" d="M153.6 498.197c-23.895 0-35.843 0-44.97 4.651-8.028 4.087-14.555 10.615-18.646 18.645-4.65 9.126-4.65 21.074-4.65 44.969v239.937c0 23.895 0 35.843 4.65 44.97 4.091 8.028 10.618 14.555 18.646 18.646 9.127 4.65 21.075 4.65 44.97 4.65h239.937c23.895 0 35.843 0 44.969-4.65 8.030-4.091 14.558-10.618 18.645-18.646 4.651-9.127 4.651-21.075 4.651-44.97v-239.937c0-23.895 0-35.843-4.651-44.969-4.087-8.030-10.615-14.558-18.645-18.645-9.126-4.651-21.074-4.651-44.969-4.651h-239.937zM153.6 21.333c-23.895 0-35.843 0-44.97 4.651-8.028 4.092-14.555 10.615-18.646 18.645-4.65 9.126-4.65 21.073-4.65 44.971v239.936c0 23.898 0 35.844 4.65 44.971 4.091 8.030 10.618 14.558 18.646 18.645 9.127 4.651 21.075 4.651 44.97 4.651h239.937c23.895 0 35.843 0 44.969-4.651 8.030-4.087 14.558-10.615 18.645-18.645 4.651-9.126 4.651-21.073 4.651-44.971v-239.936c0-23.898 0-35.844-4.651-44.971-4.087-8.030-10.615-14.554-18.645-18.645-9.126-4.651-21.074-4.651-44.969-4.651h-239.937zM630.464 498.197c-23.898 0-35.844 0-44.971 4.651-8.030 4.087-14.558 10.615-18.645 18.645-4.651 9.126-4.651 21.074-4.651 44.969v239.937c0 23.895 0 35.843 4.651 44.97 4.087 8.028 10.615 14.555 18.645 18.646 9.126 4.65 21.073 4.65 44.971 4.65h239.936c23.898 0 35.844 0 44.971-4.65 8.030-4.091 14.554-10.618 18.645-18.646 4.651-9.127 4.651-21.075 4.651-44.97v-239.937c0-23.895 0-35.843-4.651-44.969-4.092-8.030-10.615-14.558-18.645-18.645-9.126-4.651-21.073-4.651-44.971-4.651h-239.936zM630.464 21.333c-23.898 0-35.844 0-44.971 4.651-8.030 4.092-14.558 10.615-18.645 18.645-4.651 9.126-4.651 21.073-4.651 44.971v239.936c0 23.898 0 35.844 4.651 44.971 4.087 8.030 10.615 14.558 18.645 18.645 9.126 4.651 21.073 4.651 44.971 4.651h239.936c23.898 0 35.844 0 44.971-4.651 8.030-4.087 14.554-10.615 18.645-18.645 4.651-9.126 4.651-21.073 4.651-44.971v-239.936c0-23.898 0-35.844-4.651-44.971-4.092-8.030-10.615-14.554-18.645-18.645-9.126-4.651-21.073-4.651-44.971-4.651h-239.936zM160.628 573.49h225.882v225.882h-225.882v-225.882zM637.491 573.49h225.882v225.882h-225.882v-225.882zM637.491 96.627h225.882v225.882h-225.882v-225.882zM160.628 96.627h225.882v225.882h-225.882v-225.882z" />
<glyph unicode="&#xe92d;" glyph-name="dashboard-square" d="M617.412 598.588c-23.565 0-42.667 19.103-42.667 42.667v190.745c0 23.564 19.102 42.667 42.667 42.667h278.588c23.565 0 42.667-19.103 42.667-42.667v-190.745c0-23.564-19.102-42.667-42.667-42.667h-278.588zM128 422.903c-23.564 0-42.667 19.102-42.667 42.667v366.43c0 23.564 19.103 42.667 42.667 42.667h278.588c23.564 0 42.666-19.103 42.666-42.667v-366.43c0-23.565-19.102-42.667-42.666-42.667h-278.588zM617.412 21.333c-23.565 0-42.667 19.102-42.667 42.667v366.43c0 23.565 19.102 42.667 42.667 42.667h278.588c23.565 0 42.667-19.102 42.667-42.667v-366.43c0-23.565-19.102-42.667-42.667-42.667h-278.588zM128 21.333c-23.564 0-42.667 19.102-42.667 42.667v190.746c0 23.565 19.103 42.667 42.667 42.667h278.588c23.564 0 42.666-19.102 42.666-42.667v-190.746c0-23.565-19.102-42.667-42.666-42.667h-278.588zM160.628 498.197h213.333v301.175h-213.333v-301.175zM650.039 96.627h213.333v301.175h-213.333v-301.175zM650.039 673.882h213.333v125.49h-213.333v-125.49zM160.628 96.627h213.333v125.491h-213.333v-125.491z" />
<glyph unicode="&#xe92e;" glyph-name="delete-1" d="M271.757 21.333c-25.532 0-47.343 8.926-65.434 26.773-18.082 17.856-27.123 39.386-27.123 64.589v641.46h-29.867c-11.782 0-21.333 9.551-21.333 21.333v33.142c0 11.782 9.551 21.333 21.333 21.333h187.733c11.782 0 21.333 9.551 21.333 21.333v2.036c0 11.782 9.551 21.333 21.333 21.333h264.533c11.78 0 21.333-9.551 21.333-21.333v-2.036c0-11.782 9.553-21.333 21.333-21.333h187.733c11.78 0 21.333-9.551 21.333-21.333v-33.142c0-11.782-9.553-21.333-21.333-21.333h-29.867v-641.46c0-25.532-8.96-47.138-26.88-64.828s-39.812-26.534-65.677-26.534h-480.486zM768 754.156h-512v-641.46c0-4.54 1.476-8.269 4.429-11.183s6.729-4.369 11.328-4.369h480.486c3.942 0 7.552 1.621 10.829 4.864 3.285 3.234 4.928 6.797 4.928 10.688v641.46zM379.085 247.39c0-4.715 3.82-8.533 8.533-8.533h59.721c4.715 0 8.533 3.819 8.533 8.533v356.518c0 4.713-3.819 8.533-8.533 8.533h-59.721c-4.713 0-8.533-3.82-8.533-8.533v-356.518zM568.128 247.39c0-4.715 3.819-8.533 8.533-8.533h59.721c4.715 0 8.533 3.819 8.533 8.533v356.518c0 4.713-3.819 8.533-8.533 8.533h-59.721c-4.715 0-8.533-3.82-8.533-8.533v-356.518z" />
<glyph unicode="&#xe92f;" glyph-name="delete" d="M439.411 296.009c8.265-7.974 21.363-7.974 29.628 0l92.983 89.737c8.265 7.979 21.363 7.979 29.628 0l92.979-89.732c8.269-7.979 21.363-7.979 29.632 0l18.97 18.308c8.691 8.388 8.691 22.31 0 30.699l-90.799 87.629c-8.691 8.388-8.691 22.315 0 30.703l90.799 87.627c8.691 8.388 8.691 22.313 0 30.701l-18.97 18.31c-8.269 7.977-21.363 7.977-29.632 0l-92.979-89.734c-8.265-7.979-21.363-7.979-29.628 0l-92.983 89.736c-8.265 7.977-21.363 7.977-29.628 0.002l-18.981-18.313c-8.694-8.388-8.695-22.314-0.002-30.703l90.796-87.625c8.691-8.388 8.691-22.315 0-30.703l-90.796-87.625c-8.692-8.388-8.692-22.315 0.002-30.703l18.981-18.313zM353.283 106.667c-13.495 0-26.283 2.876-38.363 8.623-12.073 5.751-22.015 13.7-29.827 23.851l-221.74 282.517c-12.138 15.462-12.137 37.222 0 52.685l221.74 282.519c7.813 10.149 17.755 18.098 29.827 23.848 12.080 5.749 24.868 8.624 38.363 8.624h500.144c23.445 0 43.516-8.055 60.211-24.166 16.691-16.111 25.041-35.48 25.041-58.106v-518.12c0-22.626-8.35-41.997-25.041-58.108-16.695-16.111-36.766-24.166-60.211-24.166h-500.144zM141.452 461.18c-6.077-7.735-6.077-18.624 0-26.359l200.041-254.63c1.509-1.754 3.246-3.068 5.211-3.947 1.965-0.875 4.158-1.31 6.578-1.31h500.144c4.237 0 7.714 1.314 10.436 3.938 2.718 2.624 4.079 5.978 4.079 10.069v518.12c0 4.089-1.361 7.445-4.079 10.069-2.722 2.624-6.199 3.937-10.436 3.937h-500.144c-2.42 0-4.614-0.436-6.578-1.309-1.965-0.88-3.702-2.196-5.211-3.948l-200.041-254.63z" />
<glyph unicode="&#xe930;" glyph-name="delivery-box" d="M209.668 64c-22.822 0-42.138 7.906-57.95 23.718s-23.718 35.127-23.718 57.95v604.664c0 22.822 7.906 42.138 23.718 57.95s35.129 23.718 57.95 23.718h604.664c22.822 0 42.138-7.906 57.95-23.718s23.718-35.129 23.718-57.95v-604.664c0-22.822-7.906-42.138-23.718-57.95s-35.127-23.718-57.95-23.718h-604.664zM209.668 131.763h604.664c4.058 0 7.39 1.306 9.997 3.908 2.603 2.607 3.908 5.939 3.908 9.997v130.313h-148.565c-19.686-28.612-44.143-50.825-73.365-66.637s-60.659-23.718-94.306-23.718c-33.647 0-65.084 7.906-94.306 23.718s-53.677 38.025-73.367 66.637h-148.563v-130.313c0-4.058 1.302-7.39 3.907-9.997 2.605-2.603 5.937-3.908 9.996-3.908zM512 253.393c28.612 0 54.588 8.282 77.931 24.845 23.339 16.563 39.526 38.4 48.563 65.506h189.743v406.588c0 4.058-1.306 7.39-3.908 9.996-2.607 2.605-5.939 3.907-9.997 3.907h-604.664c-4.058 0-7.39-1.303-9.996-3.907s-3.907-5.937-3.907-9.996v-406.588h189.741c9.036-27.106 25.224-48.943 48.564-65.506 23.343-16.563 49.318-24.845 77.931-24.845zM209.668 131.763v0z" />
<glyph unicode="&#xe931;" glyph-name="dice-outline" d="M512 0.201c-22.199 0-44.399 5.798-64.401 17.199l-303.999 177.003c-29.4 16.998-47.6 48.798-47.6 82.799v341.599c0 34 18.4 65.8 47.6 82.8l303.999 177c39.599 23.2 89.003 23.2 128.602 0l304-177c29.402-17.2 47.599-48.8 47.599-82.8v-341.599c0-34.001-18.197-65.801-47.599-82.799l-304-177.003c-19.601-11.601-42.001-17.199-64.201-17.199zM512 832c-11.2 0-22.199-2.8-32.201-8.6l-304-177c-9.8-5.6-15.8-16.2-15.8-27.6v-341.398c0-11.401 6-22.003 15.8-27.601l304-177.003c19.802-11.597 44.399-11.597 64.401 0l304 177.003c9.801 5.598 15.799 16.201 15.799 27.601v341.398c0 11.2-6.199 21.8-15.799 27.6l-304 177c-10.001 5.6-21.201 8.6-32.201 8.6zM512.021 400c-5.598 0-11.2 1.399-16.201 4.399l-373.999 220.001c-15.2 9-20.4 28.6-11.4 43.8s28.6 20.4 43.8 11.4l357.799-210.399 357.803 210.399c15.198 9 34.799 3.8 43.797-11.4 9.003-15.2 3.802-34.8-11.401-43.8l-373.999-220.001c-5.001-2.999-10.598-4.399-16.201-4.399zM512 0c-17.6 0-32 14.4-32 32v400c0 17.6 14.4 32 32 32s32-14.4 32-32v-400c0-17.6-14.4-32-32-32zM512 624c26.509 0 48 14.327 48 32s-21.491 32-48 32c-26.509 0-48-14.327-48-32s21.491-32 48-32zM416 320c17.673 0 32 21.491 32 48s-14.327 48-32 48c-17.673 0-32-21.491-32-48s14.327-48 32-48zM224 256c17.673 0 32 21.491 32 48s-14.327 48-32 48c-17.673 0-32-21.491-32-48s14.327-48 32-48zM608 320c17.673 0 32 21.491 32 48s-14.327 48-32 48c-17.673 0-32-21.491-32-48s14.327-48 32-48zM800 432c17.673 0 32 21.491 32 48s-14.327 48-32 48c-17.673 0-32-21.491-32-48s14.327-48 32-48zM608 144c17.673 0 32 21.491 32 48s-14.327 48-32 48c-17.673 0-32-21.491-32-48s14.327-48 32-48zM800 256c17.673 0 32 21.491 32 48s-14.327 48-32 48c-17.673 0-32-21.491-32-48s14.327-48 32-48z" />
<glyph unicode="&#xe932;" glyph-name="discount-tag" d="M470.793 21.333c-10.159 0-20.339 2.027-30.541 6.084-10.214 4.066-19.401 10.155-27.567 18.27l-303.664 303.415c-8.241 8.205-14.249 17.267-18.025 27.183-3.776 9.911-5.664 19.994-5.664 30.251 0 10.253 1.888 20.48 5.664 30.686 3.776 10.193 9.784 19.371 18.025 27.529l385.178 385.562c7.462 7.441 16.282 13.358 26.453 17.751 10.172 4.401 20.689 6.602 31.543 6.602h304.785c22.707 0 42.001-7.991 57.873-23.972 15.876-15.989 23.812-35.204 23.812-57.645v-304.538c0-10.961-2.031-21.402-6.089-31.326-4.062-9.929-9.924-18.573-17.587-25.937l-386.304-385.562c-8.128-8.115-17.271-14.204-27.43-18.27-10.15-4.058-20.305-6.084-30.464-6.084zM460.749 93.026c2.876-2.884 6.259-4.326 10.155-4.326 3.891 0 7.27 1.442 10.15 4.326l386.3 386.244c1.446 1.438 2.458 3.021 3.034 4.749 0.572 1.724 0.858 3.447 0.858 5.175v303.855c0 4.027-1.37 7.336-4.105 9.926-2.735 2.597-6.118 3.896-10.159 3.896h-309.709l-390.189-390.142c-2.884-2.876-4.326-6.255-4.326-10.138 0-3.895 1.442-7.279 4.326-10.15l303.665-303.415zM757.577 637.586c15.727 0 29.094 5.457 40.107 16.37 11.008 10.914 16.508 24.171 16.508 39.77 0 15.712-5.483 29.066-16.452 40.062-10.974 11.003-24.299 16.505-39.979 16.505s-28.992-5.483-39.94-16.449c-10.953-10.966-16.427-24.282-16.427-39.949 0-15.66 5.461-28.961 16.384-39.904 10.931-10.936 24.196-16.404 39.799-16.404zM422.275 537.824c0 24.805 20.123 44.912 44.951 44.912h0.674c24.823 0 44.949-20.108 44.949-44.912s-20.126-44.913-44.949-44.913h-0.674c-24.828 0-44.951 20.109-44.951 44.913zM422.441 268.352c0 24.802 20.123 44.911 44.951 44.911h0.674c24.823 0 44.945-20.109 44.945-44.911 0-24.806-20.122-44.915-44.945-44.915h-0.674c-24.828 0-44.951 20.109-44.951 44.915zM253.892 403.089c0 18.603 15.093 33.681 33.712 33.681h359.59c18.62 0 33.715-15.078 33.715-33.681s-15.095-33.685-33.715-33.685h-359.59c-18.618 0-33.712 15.083-33.712 33.685z" />
<glyph unicode="&#xe933;" glyph-name="dish" d="M895.983 633.6c-102.502 0-185.6-83.096-185.6-185.6 0-102.502 83.098-185.6 185.6-185.6 15.317 0 27.733-12.416 27.733-27.733s-12.416-27.733-27.733-27.733c-133.137 0-241.067 107.93-241.067 241.067s107.93 241.066 241.067 241.066c15.317 0 27.733-12.416 27.733-27.733s-12.416-27.733-27.733-27.733zM895.983 804.266c-196.762 0-356.267-159.506-356.267-356.266 0-196.762 159.505-356.267 356.267-356.267 15.317 0 27.733-12.416 27.733-27.733s-12.416-27.733-27.733-27.733c-227.396 0-411.733 184.337-411.733 411.733 0 227.394 184.337 411.733 411.733 411.733 15.317 0 27.733-12.416 27.733-27.733s-12.416-27.733-27.733-27.733zM255.983 859.733c15.316 0 27.733-12.416 27.733-27.733v-213.333c0-15.316-12.417-27.733-27.733-27.733s-27.733 12.417-27.733 27.733v213.333c0 15.317 12.416 27.733 27.733 27.733zM255.983 518.4c15.316 0 27.733-12.416 27.733-27.733v-426.667c0-15.317-12.417-27.733-27.733-27.733s-27.733 12.416-27.733 27.733v426.667c0 15.317 12.416 27.733 27.733 27.733zM121.583 618.666c0 15.317 12.416 27.733 27.733 27.733h213.333c15.316 0 27.733-12.416 27.733-27.733s-12.417-27.733-27.733-27.733h-213.333c-15.317 0-27.733 12.417-27.733 27.733zM127.983 859.733c15.316 0 27.733-12.416 27.733-27.733v-185.688c0-46.045 14.092-77.868 32.624-97.898 18.641-20.148 43.209-30.013 67.643-30.013s49.003 9.865 67.643 30.009c18.532 20.030 32.623 51.85 32.623 97.895v185.696c0 15.317 12.416 27.733 27.733 27.733s27.733-12.416 27.733-27.733v-185.696c0-57.715-17.908-103.714-47.377-135.563-29.36-31.735-68.792-47.808-108.358-47.808s-78.997 16.077-108.356 47.812c-29.468 31.85-47.376 77.85-47.376 135.566v185.688c0 15.317 12.416 27.733 27.733 27.733z" />
<glyph unicode="&#xe934;" glyph-name="document-attachment" d="M487.113 906.667h49.775c83.238 0 148.791 0.001 200.017-6.503 52.433-6.658 94.682-20.622 128.141-52.219 33.711-31.841 48.849-72.463 56.021-122.833 6.933-48.729 6.933-110.942 6.933-189.247v-45.197c0-17.673-14.327-32-32-32s-32 14.327-32 32v42.667c0 81.409-0.077 139.060-6.298 182.758-6.059 42.58-17.387 67.178-36.604 85.324-19.469 18.39-46.276 29.42-92.258 35.258-46.724 5.933-108.211 5.993-194.253 5.993h-45.175c-86.041 0-147.53-0.061-194.253-5.993-45.981-5.839-72.788-16.868-92.26-35.258-19.214-18.146-30.542-42.744-36.603-85.324-6.221-43.697-6.297-101.349-6.297-182.758v-170.667c0-81.408 0.076-139.059 6.297-182.758 6.061-42.581 17.39-67.179 36.602-85.321 19.472-18.389 46.28-29.423 92.261-35.26 46.723-5.935 108.211-5.995 194.253-5.995h22.588c17.673 0 32-14.327 32-32s-14.327-32-32-32h-24.883c-83.24 0-148.795 0-200.020 6.502-52.436 6.66-94.685 20.625-128.141 52.22-33.715 31.842-48.851 72.465-56.021 122.833-6.937 48.73-6.936 110.942-6.935 189.248v175.728c-0.001 78.305-0.001 140.518 6.935 189.247 7.17 50.369 22.306 90.992 56.020 122.833 33.456 31.597 75.706 45.561 128.142 52.219 51.224 6.504 116.779 6.504 200.015 6.503zM309.333 661.333c0 17.673 14.327 32 32 32h341.333c17.673 0 32-14.327 32-32s-14.327-32-32-32h-341.333c-17.673 0-32 14.327-32 32zM309.333 448c0 17.673 14.327 32 32 32h213.333c17.673 0 32-14.327 32-32s-14.327-32-32-32h-213.333c-17.673 0-32 14.327-32 32zM654.293 343.582c28.006 29.474 67.989 51.085 113.707 51.085s85.7-21.611 113.707-51.085c27.793-29.248 46.293-68.843 46.293-108.915v-155.61c0-17.673-14.327-32-32-32s-32 14.327-32 32v155.61c0 20.915-10.15 45.321-28.685 64.828-18.321 19.277-42.338 31.172-67.315 31.172s-48.994-11.895-67.311-31.172c-18.539-19.507-28.689-43.913-28.689-64.828v-149.333c0-13.67 14.946-32 37.82-32 22.869 0 37.815 18.325 37.815 32v116.706c0 17.673 14.327 32 32 32s32-14.327 32-32v-116.706c0-52.86-47.569-96-101.815-96-54.251 0-101.82 43.136-101.82 96v149.333c0 40.073 18.5 79.667 46.293 108.915z" />
<glyph unicode="&#xe935;" glyph-name="door" d="M465.562 379.226c11.371 0 21.060 4.049 29.069 12.147 8.004 8.107 12.006 17.911 12.006 29.419s-4.002 21.312-12.006 29.419c-8.009 8.098-17.698 12.151-29.069 12.151-11.366 0-21.056-4.053-29.069-12.151-8.004-8.107-12.003-17.911-12.003-29.419s3.999-21.312 12.003-29.419c8.013-8.098 17.702-12.147 29.069-12.147zM279.814 21.333v70.494l288.898 38.865c3.567 0.294 6.618 1.801 9.148 4.51s3.797 5.875 3.797 9.493v526.886c0 14.764-4.599 27.751-13.794 38.959-9.203 11.201-20.706 17.584-34.513 19.151l-239.245 31.816v70.493l249.148-33.261c31.373-4.754 57.229-19.002 77.559-42.742s30.498-51.487 30.498-83.24v-526.615c0-20.907-6.908-39.343-20.723-55.313-13.807-15.966-31.040-25.455-51.695-28.467l-299.078-41.028zM279.814 91.827h464.369v655.217c0 4.221-1.335 7.687-4.015 10.397s-6.101 4.065-10.274 4.065h-435.789c-4.172 0-7.596-1.355-10.274-4.065s-4.017-6.176-4.017-10.397v-655.217zM162.828 21.333c-9.883 0-18.157 3.375-24.821 10.129-6.671 6.741-10.007 15.117-10.007 25.118s3.336 18.377 10.007 25.118c6.664 6.754 14.938 10.129 24.821 10.129h47.331v655.217c0 23.435 8.2 43.455 24.6 60.060 16.408 16.597 36.19 24.896 59.347 24.896h435.789c23.155 0 42.94-8.299 59.345-24.896 16.401-16.605 24.602-36.625 24.602-60.060v-655.217h47.33c9.886 0 18.159-3.375 24.823-10.129 6.669-6.741 10.005-15.117 10.005-25.118s-3.337-18.377-10.005-25.118c-6.665-6.754-14.938-10.129-24.823-10.129h-698.343z" />
<glyph unicode="&#xe936;" glyph-name="download-01" d="M512 778.667c17.673 0 32-14.327 32-32v-361.041c0.085 0.102 0.171 0.201 0.26 0.303 8.99 10.611 17.792 21.824 26.022 32.307 0.64 0.815 1.276 1.626 1.907 2.428 8.201 10.441 16.828 21.41 23.531 28.305 12.318 12.676 32.576 12.962 45.248 0.644 12.676-12.318 12.962-32.576 0.644-45.248-3.785-3.895-9.997-11.652-19.093-23.232-0.657-0.841-1.327-1.69-2.005-2.556-8.111-10.33-17.626-22.451-27.426-34.022-10.505-12.399-22.263-25.271-34.018-35.285-5.888-5.013-12.527-9.963-19.669-13.786-6.891-3.686-16.38-7.484-27.401-7.484s-20.51 3.797-27.401 7.484c-7.142 3.823-13.781 8.772-19.669 13.786-11.755 10.014-23.509 22.886-34.018 35.285-9.8 11.567-19.313 23.689-27.423 34.018-0.679 0.866-1.349 1.719-2.008 2.56-9.096 11.58-15.31 19.337-19.094 23.232-12.318 12.672-12.030 32.93 0.643 45.248s32.932 12.032 45.25-0.644c6.703-6.891 15.33-17.865 23.531-28.305 0.636-0.806 1.271-1.617 1.911-2.428 8.23-10.487 17.033-21.696 26.018-32.307 0.090-0.102 0.175-0.201 0.26-0.303v361.041c0 17.673 14.327 32 32 32zM181.333 149.333c0 17.673 14.327 32 32 32h597.338c17.673 0 32-14.327 32-32s-14.327-32-32-32h-597.338c-17.673 0-32 14.327-32 32z" />
<glyph unicode="&#xe937;" glyph-name="drag-drop-vertical" d="M288 704c0 29.455 23.878 53.333 53.333 53.333h0.271c29.455 0 53.333-23.878 53.333-53.333s-23.878-53.333-53.333-53.333h-0.271c-29.455 0-53.333 23.878-53.333 53.333zM629.065 704c0 29.455 23.876 53.333 53.333 53.333h0.269c29.457 0 53.333-23.878 53.333-53.333s-23.876-53.333-53.333-53.333h-0.269c-29.457 0-53.333 23.878-53.333 53.333zM288 448c0 29.457 23.878 53.333 53.333 53.333h0.271c29.455 0 53.333-23.876 53.333-53.333s-23.878-53.333-53.333-53.333h-0.271c-29.455 0-53.333 23.876-53.333 53.333zM629.065 448c0 29.457 23.876 53.333 53.333 53.333h0.269c29.457 0 53.333-23.876 53.333-53.333s-23.876-53.333-53.333-53.333h-0.269c-29.457 0-53.333 23.876-53.333 53.333zM288 192c0 29.457 23.878 53.333 53.333 53.333h0.271c29.455 0 53.333-23.876 53.333-53.333s-23.878-53.333-53.333-53.333h-0.271c-29.455 0-53.333 23.876-53.333 53.333zM629.065 192c0 29.457 23.876 53.333 53.333 53.333h0.269c29.457 0 53.333-23.876 53.333-53.333s-23.876-53.333-53.333-53.333h-0.269c-29.457 0-53.333 23.876-53.333 53.333z" />
<glyph unicode="&#xe938;" glyph-name="earthquake" d="M387.936 42.667c-7.495 0-14.016 2.052-19.563 6.157-5.554 4.1-9.479 9.681-11.776 16.734l-107.157 350.443h-142.773v64h166.56c7.061 0 13.365-1.984 18.912-5.952 5.554-3.959 9.479-9.472 11.776-16.533l79.019-256.819 139.575 626.707c1.583 7.495 5.261 13.689 11.029 18.581 5.773 4.899 12.407 7.349 19.9 7.349 7.488 0 14.123-2.339 19.895-7.019 5.769-4.679 9.446-10.763 11.038-18.251l98.539-423.639 68.352 218.839c2.3 7.054 6.225 12.633 11.776 16.736s11.853 6.155 18.914 6.155c7.053 0 13.18-1.874 18.377-5.621 5.193-3.747 9.156-8.931 11.895-15.552l54.562-144.981h50.129v-64h-73.020c-7.057 0-13.184 1.873-18.381 5.619-5.193 3.75-9.156 8.794-11.891 15.138l-29.291 79.019-75.904-243.038c-2.3-7.057-6.263-12.745-11.895-17.071-5.632-4.314-12.194-6.255-19.691-5.824-7.497 0.444-13.978 2.999-19.443 7.671-5.47 4.681-8.998 10.547-10.581 17.6l-93.38 401.568-134.814-608.749c-1.856-7.488-5.561-13.457-11.115-17.916s-12.078-6.912-19.573-7.351z" />
<glyph unicode="&#xe939;" glyph-name="favourite" d="M511.573 64c-9.617 0-19.277 1.783-28.979 5.346-9.702 3.571-18.24 9.161-25.613 16.764l-64.515 60.561c-79.629 74.978-150.726 148.634-213.289 220.966-62.563 72.337-93.844 149.824-93.844 232.471 0 65.818 21.49 120.924 64.471 165.315 42.989 44.384 96.352 66.576 160.090 66.576 36.214 0 71.987-8.623 107.318-25.868 35.323-17.245 66.918-45.25 94.787-84.014 27.87 38.764 59.465 66.769 94.788 84.014 35.328 17.245 71.104 25.868 107.315 25.868 63.74 0 117.103-22.192 160.090-66.576 42.982-44.392 64.474-99.497 64.474-165.315 0-83.543-31.812-161.897-95.437-235.057-63.629-73.161-134.566-146.193-212.817-219.089l-63.834-59.853c-7.364-7.603-15.97-13.193-25.813-16.764-9.852-3.563-19.58-5.346-29.193-5.346zM479.697 651.658c-24.299 38.231-49.877 66.252-76.744 84.061-26.857 17.809-57.877 26.714-93.058 26.714-44.912 0-82.339-15.459-112.281-46.378s-44.912-69.568-44.912-115.946c0-37.219 11.617-76.132 34.852-116.747 23.235-40.61 52.398-80.981 87.489-121.114 35.091-40.141 73.109-79.356 114.054-117.641 40.936-38.293 78.879-73.882 113.832-106.761 2.59-2.381 5.611-3.571 9.071-3.571s6.481 1.19 9.071 3.571c34.953 32.879 72.896 68.467 113.83 106.761 40.947 38.285 78.963 77.5 114.057 117.641 35.089 40.132 64.256 80.503 87.488 121.114 23.236 40.614 34.854 79.528 34.854 116.747 0 46.378-14.972 85.027-44.915 115.946-29.939 30.919-67.366 46.378-112.282 46.378-35.179 0-66.197-8.905-93.056-26.714-26.867-17.809-52.446-45.83-76.745-84.061-3.802-5.944-8.58-10.404-14.336-13.38-5.76-2.968-11.746-4.452-17.967-4.452s-12.207 1.484-17.967 4.452c-5.756 2.976-10.534 7.436-14.336 13.38z" />
<glyph unicode="&#xe93a;" glyph-name="file-remove" d="M557.581 21.333h-48.495c-81.105 0-144.978 0-194.888 6.050-51.092 6.191-92.258 19.183-124.856 48.576-32.85 29.619-47.598 67.409-54.584 114.261-6.759 45.329-6.758 103.202-6.758 176.047v161.114c0 16.439 13.96 29.766 31.18 29.766s31.18-13.327 31.18-29.766v-158.763c0-75.729 0.074-129.357 6.135-170.005 5.906-39.612 16.944-62.49 35.665-79.373 18.973-17.105 45.092-27.366 89.894-32.798 45.525-5.517 105.437-5.577 189.273-5.577h44.015c83.836 0 143.748 0.060 189.274 5.577 44.8 5.431 70.921 15.693 89.894 32.798 18.722 16.883 29.756 39.761 35.665 79.373 6.059 40.649 6.135 94.276 6.135 170.005v158.763c0 75.727-0.077 129.357-6.135 170.006-5.909 39.61-16.947 62.491-35.665 79.369-18.974 17.107-45.094 27.369-89.894 32.8-45.525 5.519-105.438 5.575-189.274 5.575h-22.007c-17.22 0-31.181 13.327-31.181 29.768s13.961 29.767 31.181 29.767h24.247c81.105 0 144.977 0.001 194.889-6.050 51.093-6.194 92.258-19.183 124.855-48.576 32.849-29.619 47.599-67.407 54.583-114.263 6.758-45.329 6.758-103.202 6.758-176.045v-163.465c0-72.845 0-130.718-6.758-176.047-6.985-46.852-21.734-84.642-54.583-114.261-32.597-29.393-73.762-42.385-124.855-48.576-49.911-6.050-113.783-6.050-194.889-6.050zM730.803 249.549c0-16.439-13.961-29.764-31.181-29.764h-332.58c-17.22 0-31.18 13.325-31.18 29.764 0 16.444 13.96 29.769 31.18 29.769h332.58c17.22 0 31.181-13.325 31.181-29.769zM730.803 448c0-16.439-13.961-29.769-31.181-29.769h-207.863c-17.22 0-31.177 13.329-31.177 29.769s13.956 29.769 31.177 29.769h207.863c17.22 0 31.181-13.329 31.181-29.769zM178.705 826.258c12.176 11.625 31.918 11.625 44.094 0l61.098-58.331 61.098 58.331c12.177 11.625 31.918 11.625 44.095 0s12.176-30.473 0-42.097l-61.098-58.331 61.098-58.331c12.176-11.625 12.176-30.473 0-42.097s-31.918-11.625-44.095 0l-61.098 58.331-61.098-58.331c-12.176-11.625-31.918-11.625-44.094 0s-12.177 30.473 0 42.097l61.098 58.331-61.098 58.331c-12.177 11.625-12.177 30.473 0 42.097z" />
<glyph unicode="&#xe93b;" glyph-name="file-verified" d="M487.646 874.667h45.769c76.54 0 136.819 0.001 183.923-6.050 48.213-6.193 87.066-19.183 117.828-48.576 31.002-29.62 44.919-67.408 51.516-114.263 6.379-45.329 6.379-103.202 6.374-176.045v-42.044c0-16.439-13.171-29.764-29.423-29.764s-29.427 13.325-29.427 29.764v39.693c0 75.728-0.068 129.357-5.79 170.006-5.572 39.61-15.991 62.491-33.655 79.371-17.907 17.107-42.556 27.367-84.838 32.798-42.965 5.519-99.503 5.575-178.624 5.575h-41.54c-79.118 0-135.659-0.056-178.623-5.575-42.282-5.431-66.932-15.692-84.837-32.798-17.667-16.88-28.084-39.761-33.658-79.371-5.72-40.649-5.79-94.278-5.79-170.006v-158.763c0-75.729 0.070-129.357 5.79-170.005 5.574-39.612 15.991-62.494 33.657-79.369 17.905-17.109 42.556-27.371 84.838-32.802 42.964-5.517 99.505-5.577 178.623-5.577h20.77c16.252 0 29.427-13.325 29.427-29.764s-13.175-29.769-29.427-29.769h-22.882c-76.541 0-136.821 0-183.924 6.050-48.217 6.195-87.067 19.183-117.831 48.576-31.002 29.619-44.92 67.409-51.514 114.261-6.379 45.329-6.378 103.202-6.377 176.047v163.465c-0.001 72.844-0.001 130.716 6.377 176.045 6.593 46.856 20.511 84.643 51.513 114.263 30.764 29.393 69.615 42.383 117.832 48.576 47.103 6.051 107.383 6.050 183.924 6.050zM324.169 646.449c0 16.44 13.174 29.768 29.425 29.768h313.871c16.252 0 29.423-13.327 29.423-29.768s-13.171-29.767-29.423-29.767h-313.871c-16.251 0-29.425 13.327-29.425 29.767zM324.169 448c0 16.439 13.174 29.769 29.425 29.769h196.17c16.247 0 29.423-13.329 29.423-29.769s-13.175-29.769-29.423-29.769h-196.17c-16.251 0-29.425 13.329-29.425 29.769zM960 405.333c8.341-7.266 23.518-21.619 15.556-29.231l-292.356-279.415c-3.878-3.712-9.237-5.837-14.861-5.897s-11.034 1.954-15.010 5.581l-97.451 88.905c-8.154 7.441 11.968 20.617 20.122 28.058s13.18 7.441 21.333 0l71.006-64.934 270.327 256.934c7.962 7.612 12.992 7.266 21.333 0z" />
<glyph unicode="&#xe93c;" glyph-name="file-view" d="M476.446 917.333h49.775c83.238 0.001 148.791 0.001 200.017-6.503 52.433-6.658 94.682-20.622 128.141-52.219 33.711-31.841 48.849-72.463 56.021-122.833 6.933-48.729 6.933-110.942 6.933-189.247v-87.864c0-17.673-14.327-32-32-32s-32 14.327-32 32v85.333c0 81.409-0.077 139.060-6.298 182.758-6.059 42.58-17.387 67.178-36.604 85.324-19.469 18.39-46.276 29.42-92.258 35.258-46.724 5.933-108.211 5.993-194.253 5.993h-45.175c-86.041 0-147.53-0.061-194.253-5.993-45.981-5.839-72.788-16.868-92.26-35.258-19.214-18.146-30.542-42.744-36.603-85.324-6.221-43.697-6.297-101.349-6.297-182.758v-170.667c0-81.408 0.076-139.059 6.297-182.758 6.061-42.581 17.39-67.179 36.602-85.321 19.472-18.389 46.28-29.423 92.261-35.26 46.723-5.935 108.211-5.995 194.253-5.995h22.588c17.673 0 32-14.327 32-32s-14.327-32-32-32h-24.883c-83.24 0-148.795 0-200.020 6.502-52.436 6.66-94.685 20.625-128.141 52.22-33.715 31.842-48.851 72.465-56.021 122.833-6.937 48.73-6.936 110.942-6.935 189.248v175.728c-0.001 78.305-0.001 140.518 6.935 189.247 7.17 50.369 22.306 90.992 56.020 122.833 33.456 31.597 75.706 45.561 128.142 52.219 51.224 6.504 116.779 6.504 200.015 6.503zM298.667 672c0 17.673 14.327 32 32 32h341.333c17.673 0 32-14.327 32-32s-14.327-32-32-32h-341.333c-17.673 0-32 14.327-32 32zM298.667 458.667c0 17.673 14.327 32 32 32h213.333c17.673 0 32-14.327 32-32s-14.327-32-32-32h-213.333c-17.673 0-32 14.327-32 32zM714.714 137.024c23.71 0 43.849 8.461 60.412 25.382s24.845 37.466 24.845 61.641c0 24.175-8.299 44.706-24.892 61.594-16.597 16.892-36.749 25.335-60.459 25.335s-43.849-8.461-60.412-25.382c-16.563-16.922-24.845-37.466-24.845-61.641s8.299-44.706 24.892-61.594c16.597-16.892 36.749-25.335 60.459-25.335zM714.667 166.4c-15.693 0-29.030 5.598-40.017 16.802-10.982 11.2-16.474 24.798-16.474 40.798s5.491 29.602 16.474 40.802c10.987 11.2 24.324 16.798 40.017 16.798s29.030-5.598 40.017-16.798c10.982-11.2 16.474-24.802 16.474-40.802s-5.491-29.598-16.474-40.798c-10.987-11.204-24.324-16.802-40.017-16.802zM714.667 74.667c-44.045 0-84.331 11.981-120.853 35.942-36.523 23.957-65.673 55.475-87.454 94.558-1.741 3.068-3.017 6.153-3.823 9.263-0.802 3.115-1.203 6.306-1.203 9.579 0 3.277 0.401 6.468 1.203 9.57 0.806 3.106 2.082 6.187 3.823 9.254 21.781 39.083 50.931 70.601 87.454 94.558 36.523 23.962 76.809 35.942 120.853 35.942s84.331-11.981 120.853-35.942c36.523-23.957 65.673-55.475 87.454-94.558 1.741-3.068 3.017-6.153 3.823-9.263 0.802-3.115 1.203-6.306 1.203-9.579 0-3.277-0.401-6.468-1.203-9.57-0.806-3.106-2.082-6.187-3.823-9.254-21.781-39.083-50.931-70.601-87.454-94.558-36.523-23.962-76.809-35.942-120.853-35.942zM714.667 106.667c39.407 0 75.584 10.577 108.54 31.731 32.951 21.158 58.15 49.69 75.584 85.602-17.434 35.913-42.633 64.444-75.584 85.602-32.956 21.154-69.133 31.731-108.54 31.731s-75.584-10.577-108.54-31.731c-32.956-21.158-58.15-49.69-75.584-85.602 17.434-35.913 42.628-64.444 75.584-85.602 32.956-21.154 69.133-31.731 108.54-31.731z" />
<glyph unicode="&#xe93d;" glyph-name="file" d="M298.667 245.329c0 17.673 14.327 32 32 32h341.333c17.673 0 32-14.327 32-32s-14.327-32-32-32h-341.333c-17.673 0-32 14.327-32 32zM298.667 415.996c0 17.673 14.327 32 32 32h170.667c17.673 0 32-14.327 32-32s-14.327-32-32-32h-170.667c-17.673 0-32 14.327-32 32zM512 852.765c-7.121 0.454-17.417 0.564-33.886 0.564-69.999 0-119.722-0.051-157.91-4.51-37.498-4.378-59.739-12.634-76.574-26.208-7.697-6.205-14.707-13.216-20.913-20.913-13.574-16.835-21.829-39.076-26.207-76.574-4.459-38.188-4.51-87.911-4.51-157.911v-193.884c0-81.357 0.068-139.157 5.963-183.006 5.771-42.927 16.595-67.657 34.65-85.713 18.057-18.057 42.79-28.881 85.716-34.65 43.847-5.897 101.646-5.965 183.004-5.965s139.157 0.068 183.006 5.965c42.927 5.769 67.657 16.593 85.709 34.65 18.057 18.057 28.885 42.786 34.654 85.713 5.897 43.849 5.965 101.649 5.965 183.006v142.639c0 18.683-0.141 30.498-0.713 38.694h-12.297c-58.347-0.001-105.382-0.002-142.37 4.972-38.404 5.164-70.741 16.209-96.422 41.891-25.685 25.682-36.732 58.018-41.894 96.422-4.971 36.991-4.971 84.023-4.971 142.374v12.444zM576.043 808.032c0.154-43.302 0.892-75.783 4.361-101.557 4.207-31.308 11.908-47.887 23.714-59.695 11.81-11.809 28.39-19.508 59.699-23.717 25.771-3.465 58.253-4.203 101.551-4.359l-189.325 189.329zM559.279 905.845c18.24-8.722 32.597-23.105 50.773-41.312 1.041-1.042 2.095-2.097 3.162-3.164l202.091-202.092c1.229-1.226 2.441-2.438 3.639-3.633 21.103-21.064 37.803-37.728 46.793-59.422 8.981-21.693 8.96-45.289 8.934-75.099-0.004-1.698-0.004-3.413-0.004-5.154v-145.045c0-78.413 0-140.518-6.532-189.124-6.729-50.027-20.898-90.513-52.83-122.445-31.927-31.927-72.418-46.097-122.441-52.826-48.606-6.532-110.711-6.532-189.124-6.532h-4.813c-78.412 0-140.519 0-189.126 6.532-50.023 6.729-90.511 20.898-122.441 52.826-31.931 31.932-46.101 72.418-52.827 122.445-6.535 48.606-6.534 110.711-6.534 189.124v198.349c0 67.481-0.001 120.942 4.942 163.274 5.073 43.451 15.721 79.269 39.953 109.324 9.070 11.249 19.316 21.495 30.565 30.565 30.054 24.232 65.872 34.879 109.323 39.953 42.332 4.943 95.792 4.942 163.271 4.942h2.061c1.502 0 2.987 0.001 4.454 0.002 25.741 0.022 46.063 0.038 65.135-6.69zM559.279 905.845c-3.763 1.8-7.629 3.402-11.575 4.795l11.575-4.795z" />
<glyph unicode="&#xe93e;" glyph-name="filters" d="M896 866.133c0 4.713-3.819 8.533-8.533 8.533h-750.933c-4.713 0-8.533-3.82-8.533-8.533v-92.452c0-19.599 6.746-38.6 19.105-53.811l281.789-346.819c12.361-15.211 19.106-34.21 19.106-53.811v-283.942c0-6.379 6.75-10.505 12.429-7.59l110.933 56.887c2.846 1.459 4.638 4.39 4.638 7.595v227.051c0 19.601 6.746 38.601 19.106 53.811l281.788 346.819c12.361 15.211 19.106 34.212 19.106 53.811v92.452z" />
</font>
</defs>
</svg>
